<svg height='100px' width='100px'  fill="#000000" xmlns="http://www.w3.org/2000/svg" xmlns:xlink="http://www.w3.org/1999/xlink" version="1.1" x="0px" y="0px" viewBox="0 0 52 52" style="enable-background:new 0 0 52 52;" xml:space="preserve"><g><path d="M50.4,42.6L26.9,0.5C26.7,0.2,26.4,0,26,0c-0.4,0-0.7,0.2-0.9,0.5L1.6,42.6c-0.2,0.4-0.1,1,0.2,1.3   c13.3,10.8,35,10.8,48.3,0C50.5,43.6,50.6,43.1,50.4,42.6z M26,3l19.2,34.4c-11.2,8.4-27.1,8.4-38.3,0L26,3z M3.8,42.9l2.1-3.7   c11.9,8.7,28.4,8.7,40.3,0l2.1,3.7C35.8,52.4,16.2,52.4,3.8,42.9z"></path><path d="M19.4,41c2.8,0,5.1-2.3,5.1-5.1c0-2.8-2.3-5.1-5.1-5.1s-5.1,2.3-5.1,5.1C14.3,38.7,16.6,41,19.4,41z M19.4,32.7   c1.7,0,3.1,1.4,3.1,3.1c0,1.7-1.4,3.1-3.1,3.1c-1.7,0-3.1-1.4-3.1-3.1C16.3,34.2,17.7,32.7,19.4,32.7z"></path><path d="M27.7,21.9c2.2,0,4.1-1.8,4.1-4.1s-1.8-4.1-4.1-4.1c-2.2,0-4.1,1.8-4.1,4.1S25.5,21.9,27.7,21.9z M27.7,15.8   c1.2,0,2.1,0.9,2.1,2.1s-0.9,2.1-2.1,2.1c-1.2,0-2.1-0.9-2.1-2.1S26.6,15.8,27.7,15.8z"></path><path d="M30.7,36.5c0,0.5,0.4,1,1,1c3.4,0,6.2-2.8,6.2-6.2c0-0.5-0.4-1-1-1s-1,0.4-1,1c0,2.3-1.9,4.2-4.2,4.2   C31.2,35.5,30.7,35.9,30.7,36.5z"></path><path d="M23.6,28.6c0.5,0,1-0.4,1-1c0-0.5-0.4-1-1-1c-2.3,0-4.2-1.9-4.2-4.2c0-0.5-0.4-1-1-1c-0.5,0-1,0.4-1,1   C17.4,25.8,20.2,28.6,23.6,28.6z"></path></g></svg>