<svg height='100px' width='100px'  fill="#000000" xmlns="http://www.w3.org/2000/svg" xmlns:xlink="http://www.w3.org/1999/xlink" version="1.1" x="0px" y="0px" viewBox="0 0 64 64" style="enable-background:new 0 0 64 64;" xml:space="preserve"><g><path d="M61,52V23.816c1.161-0.414,2-1.514,2-2.816c0-1.371-0.93-2.518-2.188-2.874L57.781,6H6.219L3.188,18.126   C1.93,18.482,1,19.629,1,21c0,1.302,0.839,2.402,2,2.816V52c-1.103,0-2,0.897-2,2v2c0,1.103,0.897,2,2,2h58c1.103,0,2-0.897,2-2v-2   C63,52.897,62.103,52,61,52z M51.326,52l1.149-4.023c0.126-0.441,0.222-0.889,0.303-1.34l2.929-2.929l-1.414-1.414l-1.323,1.323   c-0.068-1.541-0.383-3.037-0.941-4.437l1.866-3.732l-1.789-0.895l-1.209,2.419c-0.537-0.849-1.161-1.65-1.888-2.378l-1.301-1.301   l-1.414,1.414l1.301,1.301c1.15,1.15,2.021,2.501,2.598,3.97l-1.745-0.872l-0.895,1.789l3.313,1.657   c0.08,0.553,0.134,1.112,0.134,1.68c0,0.718-0.091,1.429-0.222,2.132l-2.071-2.071l-1.414,1.414l2.917,2.917L49.245,52H44V32.982   c7.106-0.139,12.562-1.697,15-2.539V52H51.326z M42,24v6.967c-5.035-0.167-10.397-1.537-15.166-2.768   C22.453,27.068,18.315,26,15,26c-4.733,0-8.146,1.306-10,2.25V24H42z M59,28.315c-1.786,0.659-7.464,2.51-15,2.667V24h15V28.315z    M58.72,18H44.28l2.5-10h9.438L58.72,18z M7.781,8H44.72l-2.5,10H5.28L7.781,8z M4,20h56c0.552,0,1,0.448,1,1s-0.448,1-1,1H4   c-0.552,0-1-0.448-1-1S3.448,20,4,20z M5,30.54C6.14,29.844,9.663,28,15,28c3.062,0,7.08,1.037,11.334,2.136   c4.891,1.263,10.393,2.667,15.666,2.832V52h-3.382l-2-4h-4.204l-2-2h-6.828l-2,2h-3.204l-1.763,3.526l-0.829-2.901l2.917-2.917   l-1.414-1.414l-2.071,2.071C15.091,45.66,15,44.95,15,44.231c0-0.568,0.054-1.127,0.134-1.68l3.313-1.657l-0.895-1.789   l-1.745,0.872c0.577-1.469,1.448-2.82,2.598-3.97L19.414,35H23v-2h-3v-3h-2v3.586l-1.008,1.008   c-0.727,0.727-1.351,1.529-1.888,2.378l-1.209-2.419l-1.789,0.895l1.866,3.732c-0.559,1.4-0.873,2.896-0.941,4.437l-1.323-1.323   l-1.414,1.414l2.929,2.929c0.081,0.451,0.176,0.899,0.302,1.34L14.674,52H5V30.54z M36.382,52H18.618l1-2h2.796l2-2h5.172l2,2   h3.796L36.382,52z M3,54h39v2H3V54z M44,56v-2h17l0.002,2H44z"></path><rect x="37" y="37" width="2" height="2"></rect><rect x="38" y="47" width="2" height="2"></rect><rect x="8" y="31" width="2" height="2"></rect><rect x="7" y="40" width="2" height="2"></rect><rect x="25" y="37" width="2" height="2"></rect><rect x="55" y="38" width="2" height="2"></rect><path d="M12,16h9v-6h-9c-1.654,0-3,1.346-3,3S10.346,16,12,16z M19,14h-2v-2h2V14z M12,12h3v2h-3c-0.552,0-1-0.448-1-1   S11.448,12,12,12z"></path></g></svg>