<svg height='100px' width='100px'  fill="#FFFFFF" xmlns="http://www.w3.org/2000/svg" xmlns:xlink="http://www.w3.org/1999/xlink" version="1.1" x="0px" y="0px" viewBox="0 0 512 512" style="enable-background:new 0 0 512 512;" xml:space="preserve"><g><path d="M388.2,114H366V90.3c0-11-8.6-20.3-19.6-20.3h-10.7l-14.6-30.6C317.8,32.5,310.7,28,303,28H189.6   c-7.7,0-14.8,4.5-18.1,11.4L157,70h-10.7c-11,0-20.3,9.3-20.3,20.3v34.1c0,0.4,0.2,0.7,0.2,1.1h0.1l24.4,220.9l-66.4,81l0,0l0,0   l-0.1,0.1c-0.2,0.2-0.3,0.4-0.5,0.7c-0.1,0.1-0.1,0.2-0.2,0.3c-0.1,0.2-0.2,0.3-0.3,0.5c-0.1,0.1-0.1,0.3-0.2,0.4   c-0.1,0.2-0.2,0.3-0.2,0.5c-0.1,0.2-0.1,0.3-0.2,0.5s-0.1,0.3-0.2,0.5s-0.1,0.3-0.1,0.5c0,0.1-0.1,0.3-0.1,0.4   c0,0.2-0.1,0.4-0.1,0.6c0,0.1,0,0.2-0.1,0.4c0,0.3-0.1,0.6-0.1,0.9v0.1l0,0l0,0v40c0,5.5,4.5,10.3,10,10.3h308.6   c5.5,0,10.3-4.7,10.3-10.3v-40l0,0l0,0l-0.2-0.1c0-0.3-0.1-0.6-0.1-0.9c0-0.1-0.1-0.2-0.1-0.4c0-0.2-0.1-0.4-0.1-0.6   c0-0.1-0.1-0.3-0.1-0.4c0-0.2-0.1-0.3-0.1-0.5s-0.1-0.3-0.2-0.5s-0.1-0.3-0.2-0.5s-0.1-0.3-0.2-0.5c-0.1-0.1-0.1-0.3-0.2-0.4   c-0.1-0.2-0.2-0.3-0.3-0.5c-0.1-0.1-0.1-0.2-0.2-0.3c-0.2-0.2-0.3-0.5-0.5-0.7l-0.1-0.1l0,0l0,0l-66.5-81.2L365.3,134h22.8   c12,0,21.8,10.2,21.8,22.2v118.5c0,5.5,4.5,10,10,10s10-4.5,10-10V156.2C430,133.2,411.2,114,388.2,114z M189.6,48h113.5l10.5,22   H179.1L189.6,48z M329.4,90L329.4,90L329.4,90H346v24H146V90H329.4z M165.9,359h160.9l52.7,65H113.2L165.9,359z M322.6,339H170.1   l-9.9-90h172.3L322.6,339z M102,464v-20h289v20H102z M334.7,229H158l-10.5-95h197.8L334.7,229z"></path><path d="M224,408h46c5.5,0,10-4.5,10-10s-4.5-10-10-10h-46c-5.5,0-10,4.5-10,10S218.5,408,224,408z"></path></g></svg>
