<svg height='100px' width='100px'  fill="#000000" xmlns="http://www.w3.org/2000/svg" xmlns:xlink="http://www.w3.org/1999/xlink" version="1.1" x="0px" y="0px" viewBox="0 0 512 512" style="enable-background:new 0 0 512 512;" xml:space="preserve"><g><path d="M450.6,186h-11.5l1.1-14h14c5.5,0,9.8-4.1,9.8-9.7v-39.6c0-22.1-17.8-39.8-39.8-39.8H342V69.1   C342,47,324.5,29,302.4,29h-93C187.3,29,169,47.1,169,69.1V83H87.7C65.6,83,48,100.7,48,122.8v39.6c0,5.5,4.1,9.7,9.7,9.7h14   l1.1,14H61.4C44.9,186,31,199,31,215.6v52c0,16.5,13.9,30.4,30.4,30.4h20.7L91,405c1,12.5,6.6,24,15.9,32.5   c6.8,6.3,15.1,10.4,24.1,12.2v23.2c0,5.5,4.6,10.1,10.2,10.1h37.5c3.8,0,7.3-2,9-5.4l13.2-26.6H311l13.2,26.6   c1.7,3.4,5.2,5.4,9,5.4h37.5c5.5,0,10.3-4.6,10.3-10.1v-23.2c9-1.8,17.2-6,24-12.3c9.3-8.5,14.8-19.9,15.9-32.4l8.8-107h20.8   c16.5,0,30.4-13.8,30.4-30.4v-52C481,199,467.1,186,450.6,186z M189,69.1c0-11,9.4-20.1,20.4-20.1h93c11,0,19.6,9.1,19.6,20.1V83   H189V69.1z M68,122.8c0-11,8.6-19.8,19.7-19.8h336.5c11,0,19.8,8.8,19.8,19.8V152H68V122.8z M61.4,278c-5.5,0-10.4-4.9-10.4-10.4   v-52c0-5.5,4.9-9.6,10.4-9.6h13l6,72H61.4z M172.5,463H151v-12h27.5L172.5,463z M339.4,463l-6.1-12H361v12H339.4z M400.9,403.1   c-1.3,15.4-14.4,27.9-29.9,27.9H140.8c-15.5,0-28.6-12.5-29.9-27.9L91.7,172h328.4L400.9,403.1z M461,267.6   c0,5.5-4.9,10.4-10.4,10.4h-19.2l6-72h13.2c5.5,0,10.4,4.1,10.4,9.6V267.6z"></path><path d="M256,230.2c-24.7,0-45,20.1-45,44.8v67.2c0,24.7,20.3,44.8,45,44.8s45-20.1,45-44.8V275   C301,250.3,280.7,230.2,256,230.2z M281,342.2c0,13.7-11.3,24.8-24.9,24.8H256c-13.7,0-24.9-11.1-24.9-24.8V275   c0-13.7,11.3-24.8,25-24.8c13.7,0,25,11.1,25,24.8v67.2H281z"></path><path d="M262,289h-12c-5.5,0-10,4.5-10,10s4.5,10,10,10h12c5.5,0,10-4.5,10-10S267.5,289,262,289z"></path></g></svg>