<svg height='100px' width='100px'  fill="#FFFFFF" xmlns="http://www.w3.org/2000/svg" xmlns:xlink="http://www.w3.org/1999/xlink" version="1.1" x="0px" y="0px" viewBox="0 0 512 512" style="enable-background:new 0 0 512 512;" xml:space="preserve"><g><path d="M399.7,92.8c-27.7-0.9-53.8,8.2-74.1,27.2h-0.4l-15-18c-9.5-11.6-23.6-18-38.6-18h-31.3   c-15,0-29,6.4-38.6,18l-14.9,18c-19.3-17.6-44.2-27.2-70.5-27.2c-57.9,0-105.2,47-105.2,104.8c0,28.3,11.9,55.6,31.9,75.6V373   c0,30.6,25.3,55,55.9,55h17.3c27.9,0,51.5-20.7,55-48.3l6.7-53.7c2.2-17.7,17.3-31,35.2-31h0.1l86.4,0.4c17.7,0.1,32.8,13.4,35,31   l0,0l6.8,53.4c3.5,27.6,27.1,48.2,55,48.2h16.2c30.6,0,55.4-24.4,55.4-55v-99.6c20-19,32.2-45.7,32.6-74.1   C501.5,142.4,456.2,94.7,399.7,92.8z M240.4,104h31.3c9,0,17.4,3.8,23.1,10.7l4.5,5.3h-86.6l4.5-5.3   C222.9,107.8,231.4,104,240.4,104z M451.5,261.3c-2.2,1.9-3.5,4.7-3.5,7.6V373c0,19.5-15.9,35-35.4,35h-16.2   c-17.8,0-32.9-13.1-35.1-30.7l-6.8-53.5c-3.5-27.5-27.1-48.4-54.8-48.4l-86.4-0.3c-0.1,0-0.1,0-0.2,0c-27.9,0-51.5,20.9-55,48.6   l-6.7,53.6c-2.2,17.7-17.3,30.8-35.2,30.8H98.9C79.3,408,63,392.5,63,373V268.9c0-2.8-1-5.5-3.1-7.4   c-18.3-16.5-28.7-39.8-28.7-63.9c0-46.8,38.2-84.8,85-84.8c22.2,0,43.2,8.5,59.1,23.9l0.1,0.1c0,0,0.1,0.1,0.1,0.2   c1.9,2,4.5,3.2,7.3,3.2h8.6l0,0h129l0,0l0,0h9.1c2.6,0,5.1-1.1,7-2.9c16.7-16.5,38.9-25.1,62.4-24.3c45.7,1.5,82.4,40.2,81.6,86.2   C480.2,223.5,469.9,245.6,451.5,261.3z"></path><path d="M119.6,132.8c-35.7,0-64.7,29-64.7,64.7s29,64.7,64.7,64.7s64.7-29,64.7-64.7S155.3,132.8,119.6,132.8z    M119.6,242.2c-24.7,0-44.7-20.1-44.7-44.7s20.1-44.7,44.7-44.7s44.7,20.1,44.7,44.7S144.2,242.2,119.6,242.2z"></path><path d="M411.8,224.1c-10.6-10.7-27.9-10.8-38.7-0.3c-5.2,5.1-8.1,12-8.1,19.3s2.7,14.2,7.9,19.4   c5.3,5.4,12.4,8.1,19.5,8.1c6.9,0,13.9-2.6,19.2-7.9C422.3,252.1,422.4,234.8,411.8,224.1L411.8,224.1z M397.5,248.5   c-2.9,2.8-7.5,2.8-10.4-0.1c-1.4-1.4-2.1-3.2-2.1-5.2s0.8-3.8,2.2-5.2c1.4-1.4,3.3-2.1,5.2-2.1c1.9,0,3.8,0.7,5.2,2.2   C400.4,241,400.4,245.6,397.5,248.5z"></path><path d="M415.8,181.7c-5.2,5.1-8.1,12-8.1,19.3s2.7,14.2,7.9,19.4c5.3,5.4,12.4,8.1,19.5,8.1   c6.9,0,13.9-2.6,19.2-7.9c10.7-10.6,10.8-27.9,0.3-38.7l0,0C443.9,171.2,426.5,171.1,415.8,181.7z M440.2,206.4   c-2.9,2.8-7.5,2.8-10.4-0.1c-1.4-1.4-2.1-3.2-2.1-5.2s0.8-3.8,2.2-5.2c1.4-1.4,3.3-2.1,5.2-2.1c1.9,0,3.8,0.7,5.2,2.2   C443.1,198.9,443,203.5,440.2,206.4z"></path><path d="M377.5,201c0-7.3-2.8-14.2-8-19.3c-5.2-5.2-12-8-19.3-8s-14.2,2.8-19.3,8c-5.2,5.2-8,12-8,19.3   s2.8,14.2,8,19.3c5.2,5.2,12,8,19.3,8s14.2-2.8,19.3-8C374.6,215.2,377.5,208.3,377.5,201z M355.3,206.2c-1.4,1.4-3.2,2.1-5.2,2.1   s-3.8-0.8-5.2-2.1c-1.4-1.4-2.1-3.2-2.1-5.2s0.8-3.8,2.1-5.2c1.4-1.4,3.2-2.1,5.2-2.1s3.8,0.8,5.2,2.1c1.4,1.4,2.1,3.2,2.1,5.2   C357.5,203,356.7,204.8,355.3,206.2z"></path><path d="M392.5,186c7,0,14-2.7,19.3-8c10.7-10.7,10.7-28,0-38.7l0,0c-10.7-10.7-28-10.7-38.7,0s-10.7,28,0,38.7   C378.5,183.3,385.5,186,392.5,186z M387.3,153.5c1.4-1.4,3.3-2.1,5.2-2.1c1.9,0,3.8,0.7,5.2,2.1c2.9,2.9,2.9,7.5,0,10.4   s-7.5,2.9-10.4,0C384.4,161,384.4,156.3,387.3,153.5z"></path><path d="M292,232h-72c-5.5,0-10,4.5-10,10s4.5,10,10,10h72c5.5,0,10-4.5,10-10S297.5,232,292,232z"></path></g></svg>
