<?xml version="1.0" encoding="utf-8"?>
<!-- Generator: Adobe Illustrator 23.0.4, SVG Export Plug-In . SVG Version: 6.00 Build 0)  -->
<svg version="1.1" id="Layer_1" xmlns="http://www.w3.org/2000/svg" xmlns:xlink="http://www.w3.org/1999/xlink" x="0px" y="0px"
	 viewBox="0 0 100 100" style="enable-background:new 0 0 100 100;" xml:space="preserve">
<style type="text/css">
	.st0{fill:#FFFFFF;}
</style>
<g>
	<g>
		<path class="st0" d="M89.1,97.8H10.9c-4.7,0-8.8-3.8-8.8-8.8V10.9c0.3-4.7,4.1-8.8,8.8-8.8h78.1c4.7,0,8.8,3.8,8.8,8.8v78.1
			C97.8,93.8,93.8,97.8,89.1,97.8z M10.9,6.9c-2.2,0-4.1,1.9-4.1,4.1v78.1c0,2.2,1.9,4.1,4.1,4.1h78.1c2.2,0,4.1-1.9,4.1-4.1V10.9
			c0-2.2-1.9-4.1-4.1-4.1H10.9z"/>
	</g>
	<g>
		<rect x="6.6" y="32.5" class="st0" width="86.9" height="4.7"/>
	</g>
	<g>
		<rect x="16.6" y="18.1" class="st0" width="7.8" height="4.7"/>
	</g>
	<g>
		<rect x="32.8" y="18.1" class="st0" width="7.8" height="4.7"/>
	</g>
	<g>
		<path class="st0" d="M43.1,78.1C33.1,78.1,25,70,25,60s8.1-18.1,18.1-18.1S61.2,50,61.2,60S53.1,78.1,43.1,78.1z M43.1,46.6
			c-7.5,0-13.4,5.9-13.4,13.4c0,7.5,5.9,13.4,13.4,13.4S56.6,67.5,56.6,60C56.6,52.8,50.6,46.6,43.1,46.6z"/>
	</g>
	<g>
		
			<rect x="61.6" y="67.7" transform="matrix(0.6698 -0.7425 0.7425 0.6698 -37.7105 73.6741)" class="st0" width="4.7" height="23.1"/>
	</g>
</g>
</svg>
