<svg height='100px' width='100px'  fill="#000000" xmlns="http://www.w3.org/2000/svg" xmlns:xlink="http://www.w3.org/1999/xlink" version="1.1" x="0px" y="0px" viewBox="0 0 512 512" style="enable-background:new 0 0 512 512;" xml:space="preserve"><g><path d="M489,350h-10V116.8c0-22.1-18.1-39.8-40.2-39.8H73.2C51.1,77,33,94.8,33,116.8V350H23   c-5.5,0-10,4.7-10,10.2v35c0,22.1,17.9,39.8,40,39.8h406c22.1,0,40-17.8,40-39.8v-35C499,354.7,494.6,350,489,350z M73.2,97h365.6   c11,0,20.2,8.8,20.2,19.8V323H53V116.8C53,105.8,62.2,97,73.2,97z M53,343h406v7H341.8c-2.7,0-5.3,1.2-7.1,3.1l-11.2,11.7   c-3.7,3.8-8.9,6.3-14.3,6.3H202.8c-5.3,0-10.5-2.4-14.3-6.2l-11.2-11.6c-1.9-1.9-4.4-3.2-7.1-3.2H53V343z M479,395.2   c0,11-8.9,19.8-20,19.8H53c-11,0-20-8.8-20-19.8V370h133.1l8.2,8.7c7.5,7.6,17.9,12.3,28.5,12.3h106.3c10.7,0,21.1-4.7,28.5-12.3   l8.2-8.7H479V395.2z"></path></g></svg>