<svg height='100px' width='100px'  fill="#000000" xmlns="http://www.w3.org/2000/svg" xmlns:xlink="http://www.w3.org/1999/xlink" version="1.1" x="0px" y="0px" viewBox="0 0 512 512" style="enable-background:new 0 0 512 512;" xml:space="preserve"><g><path d="M499,120c0-16.6-13.4-30-30-30H42c-16.6,0-30,13.4-30,30v273c0,16.6,13.4,30,30,30h427   c16.6,0,30-13.4,30-30V120z M480,119.5V182H380v-72h89.6C475.1,110,480,114,480,119.5z M380,202h100v110H380V202z M32,392.5v-273   c0-5.5,4.9-9.5,10.4-9.5H360v292H42.4C36.9,402,32,398,32,392.5z M469.6,402H380v-70h100v60.5C480,398,475.1,402,469.6,402z"></path><path d="M339,140c0-5.5-4.5-10-10-10H62c-5.5,0-10,4.5-10,10v233c0,5.5,4.5,10,10,10h267c5.5,0,10-4.5,10-10V140z    M320,362H72V150h248V362z"></path><path d="M413,247h35c5.5,0,10-4.5,10-10s-4.5-10-10-10h-35c-5.5,0-10,4.5-10,10S407.5,247,413,247z"></path><path d="M448,267h-35c-5.5,0-10,4.5-10,10s4.5,10,10,10h35c5.5,0,10-4.5,10-10S453.5,267,448,267z"></path></g></svg>