<?xml version="1.0" encoding="utf-8"?>
<!-- Generator: Adobe Illustrator 23.0.4, SVG Export Plug-In . SVG Version: 6.00 Build 0)  -->
<svg version="1.1" id="Layer_1" xmlns="http://www.w3.org/2000/svg" xmlns:xlink="http://www.w3.org/1999/xlink" x="0px" y="0px"
	 viewBox="0 0 100 100" style="enable-background:new 0 0 100 100;" xml:space="preserve">
<style type="text/css">
	.st0{fill:#FFFFFF;}
</style>
<g>
	<path class="st0" d="M86.9,8.2c0-3.2-2.6-5.9-5.9-5.9H18.9c-3.2,0-5.9,2.6-5.9,5.9V92c0,3.2,2.6,5.9,5.9,5.9h62.1
		c3.2,0,5.9-2.6,5.9-5.9V8.2z M18.9,6.3h62.2c1.1,0,1.9,0.8,1.9,1.9v15.3H17V8.1C17,7.1,17.8,6.3,18.9,6.3z M83,27.3v58.6H17V27.3
		H83z M81.1,93.8H18.9c-1.1,0-1.9-0.8-1.9-1.9v-2h66v2C83,92.9,82.2,93.8,81.1,93.8z"/>
	<path class="st0" d="M79.1,33.2c0-1.1-0.9-2-2-2H22.9c-1.1,0-2,0.9-2,2v46.9c0,1.1,0.9,2,2,2h54.3c1.1,0,2-0.9,2-2V33.2z
		 M24.8,35.2h50.4v43H24.8V35.2z"/>
	<path class="st0" d="M58.1,40H41.9c-1.1,0-2,0.9-2,2s0.9,2,2,2h16.2c1.1,0,2-0.9,2-2S59.2,40,58.1,40z"/>
	<path class="st0" d="M56.6,19.5c1.1,0,2-0.9,2-2v-5.5c0-1.1-0.9-2-2-2s-2,0.9-2,2v5.5C54.7,18.7,55.6,19.5,56.6,19.5z"/>
	<path class="st0" d="M64.5,19.5c1.1,0,2-0.9,2-2v-5.5c0-1.1-0.9-2-2-2s-2,0.9-2,2v5.5C62.5,18.7,63.4,19.5,64.5,19.5z"/>
	<path class="st0" d="M72.3,19.5c1.1,0,2-0.9,2-2v-5.5c0-1.1-0.9-2-2-2s-2,0.9-2,2v5.5C70.3,18.7,71.2,19.5,72.3,19.5z"/>
	<path class="st0" d="M31.2,20.4c3,0,5.5-2.5,5.5-5.5s-2.5-5.5-5.5-5.5S25.7,12,25.7,15S28.2,20.4,31.2,20.4z M31.2,13.4
		c0.9,0,1.6,0.7,1.6,1.6c0,0.9-0.7,1.6-1.6,1.6s-1.6-0.7-1.6-1.6C29.6,14.1,30.3,13.4,31.2,13.4z"/>
</g>
</svg>
