<?xml version="1.0" encoding="utf-8"?>
<!-- Generator: Adobe Illustrator 23.0.4, SVG Export Plug-In . SVG Version: 6.00 Build 0)  -->
<svg version="1.1" id="Layer_1" xmlns="http://www.w3.org/2000/svg" xmlns:xlink="http://www.w3.org/1999/xlink" x="0px" y="0px"
	 viewBox="0 0 100 100" style="enable-background:new 0 0 100 100;" xml:space="preserve">
<style type="text/css">
	.st0{fill:#FFFFFF;}
</style>
<path class="st0" d="M88.1,70.8L73.4,8.3c-0.3-1.2-1.5-2-2.8-1.7c-1.2,0.3-2,1.5-1.7,2.8l0.3,1.2h-9.5c-1.3,0-2.3,1-2.3,2.3
	s1,2.3,2.3,2.3h10.6l10.5,44.6L67,78.3c-0.3,0.4-0.7,0.6-1.1,0.6H30.9c-0.7,0-1.3-0.5-1.4-1.2c-1.7-8.6-9.3-14.8-18-14.8
	c-1.3,0-2.3,1-2.3,2.3c0,1.3,1,2.3,2.3,2.3c2.5,0,4.9,0.7,7,1.9l-1.8,2.4c-1.3-0.6-2.7-0.9-4.2-0.9c-5.7,0-10.3,4.6-10.3,10.3
	c0,5.7,4.6,10.3,10.3,10.3s10.3-4.6,10.3-10.3c0-2.4-0.9-4.8-2.5-6.7l1.6-2.1c1.5,1.8,2.5,3.9,3,6.2c0.6,2.9,3.1,5,5.9,5h34.9
	c1.9,0,3.7-0.9,4.8-2.4l11.5-15.4l1.4,6.1c-3.7,1.7-6.1,5.4-6.1,9.4c0,5.7,4.6,10.3,10.3,10.3s10.3-4.6,10.3-10.3
	C98.1,75.6,93.6,71,88.1,70.8z M90,78.9l-0.8-3.3c2.5,0.7,4.3,3,4.3,5.5c0,3.2-2.6,5.7-5.7,5.7c-3.2,0-5.7-2.6-5.7-5.7
	c0-1.9,1-3.8,2.6-4.8l0.9,3.6c0.2,1,1.2,1.8,2.2,1.8c0.2,0,0.3,0,0.5-0.1C89.5,81.4,90.3,80.1,90,78.9z M10.7,79.8
	c-0.8,1-0.5,2.5,0.5,3.2c0.4,0.3,0.9,0.5,1.4,0.5c0.7,0,1.4-0.3,1.8-0.9l3.1-4.2c0.5,0.9,0.8,1.8,0.8,2.8c0,3.2-2.6,5.7-5.7,5.7
	s-5.7-2.6-5.7-5.7c0-3.2,2.6-5.7,5.7-5.7c0.4,0,0.9,0.1,1.3,0.2L10.7,79.8z"/>
</svg>
