<svg height='100px' width='100px'  fill="#000000" xmlns="http://www.w3.org/2000/svg" xmlns:xlink="http://www.w3.org/1999/xlink" version="1.1" x="0px" y="0px" viewBox="0 0 91 91" enable-background="new 0 0 91 91" xml:space="preserve"><g><path d="M76.525,32.664v-29.4c0-1.389-1.125-2.514-2.514-2.514c-1.387,0-2.512,1.125-2.512,2.514v17.105H19.907V3.264   c0-1.389-1.125-2.514-2.513-2.514c-1.388,0-2.512,1.125-2.512,2.514v39.234c0,1.387,1.125,2.512,2.512,2.512h17.784v14.33   c0,1.389,1.125,2.514,2.512,2.514h5.5v26.25c0,1.387,1.125,2.512,2.514,2.512c1.387,0,2.512-1.125,2.512-2.512v-26.25h5.502   c1.389,0,2.514-1.125,2.514-2.514V45.01h7.957C70.992,45.01,76.525,39.471,76.525,32.664z M51.207,56.828H40.203V45.01h11.004   V56.828z M71.5,32.664c0,4.037-3.279,7.32-7.311,7.32H53.719H37.691H19.907v-14.59H71.5V32.664z"></path><path d="M45.701,34.176c0.67,0,1.309-0.268,1.775-0.738c0.471-0.469,0.738-1.121,0.738-1.775c0-0.67-0.268-1.307-0.738-1.773   c-0.938-0.939-2.611-0.939-3.551,0c-0.469,0.467-0.736,1.104-0.736,1.773c0,0.654,0.268,1.307,0.736,1.775   C44.396,33.908,45.049,34.176,45.701,34.176z"></path></g></svg>