<svg height='100px' width='100px'  fill="#000000" xmlns="http://www.w3.org/2000/svg" xmlns:xlink="http://www.w3.org/1999/xlink" version="1.1" x="0px" y="0px" viewBox="0 0 512 512" style="enable-background:new 0 0 512 512;" xml:space="preserve"><g><path d="M436.9,155H410v-43.9c0-0.1-0.1-0.2-0.1-0.3c-0.3-12.8-6.2-24.8-16.1-33s-22.8-11.6-35.4-9.6L323.7,74   c-18.7,3-37.7,3.3-56.5,0.8L217.9,68c-16.6-2.3-33.5-2.5-50.2-0.8l-25.2,2.6c-20.8,2.2-36.9,18.2-39.4,38.9l-0.7,5.1   c-0.2,1.7-0.4,3.4-0.4,5.1v36H75.1c-11,0-20.1,8.8-20.1,19.8v226.5c0,11,9,19.7,20.1,19.7H83v15c0,5.5,4.5,10,10,10h66   c5.5,0,10-4.5,10-10v-15h171v15c0,5.5,4.5,10,10,10h66c5.5,0,10-4.5,10-10v-15h10.9c11,0,20.1-8.6,20.1-19.7V174.8   C457,163.8,448,155,436.9,155z M122,119c0-0.9,0.2-1.9,0.3-2.8l0.7-5.1c1.3-11.4,10.2-20.1,21.6-21.3l25.2-2.6   c15.1-1.6,30.4-1.3,45.4,0.7l49.4,6.7c20.8,2.8,41.8,2.5,62.5-0.9l34.6-5.7c6.9-1.1,14.1,0.8,19.5,5.2c5.4,4.4,8.9,11,8.9,18V155   H122V119z M149,426h-46v-5h46V426z M406,426h-46v-5h46V426z M436.9,401H75V175h361.9V401L436.9,401z"></path><path d="M397.8,278H375v-57c0-5.5-4.5-10-10-10s-10,4.5-10,10v57h-20.8c-5.5,0-10.2,4-10.2,9.5V320   c0,5.5,4.7,10,10.2,10H355v25c0,5.5,4.5,10,10,10s10-4.5,10-10v-25h22.8c5.5,0,10.2-4.5,10.2-10v-32.5C408,282,403.3,278,397.8,278   z M388,310h-44v-12h44V310z"></path></g></svg>