<svg xmlns="http://www.w3.org/2000/svg" xmlns:xlink="http://www.w3.org/1999/xlink" width="494.448" height="996.601" viewBox="0 0 494.448 996.601"><defs><style>.a{fill:none;}.b{fill:#0097df;}.c{fill:#004b94;}.d{fill:#e3527e;}.e{fill:#dc4268;}.f{fill:#fff;}.g{clip-path:url(#a);}.h{fill:#713580;}.i{fill:#0f0e0b;}.j{clip-path:url(#b);}.k{clip-path:url(#c);}.l{fill:#00407d;}.m{clip-path:url(#d);}</style><clipPath id="a"><path class="a" d="M962.39,688.329a31.278,31.278,0,0,1-25.753,35.9c-16.982,2.771-31.2-9.2-35.746-25.866-6.657-24.388,8.771-33.133,25.753-35.9S960.267,675.205,962.39,688.329Z" transform="translate(-899.308 -662.138)"/></clipPath><clipPath id="b"><path class="a" d="M936.774,691.977a31.226,31.226,0,0,0,30.9,31.543c17.2.143,29.437-13.866,31.405-31.035,2.878-25.121-13.693-31.4-30.9-31.544S936.881,678.682,936.774,691.977Z" transform="translate(-936.773 -660.941)"/></clipPath><clipPath id="c"><path class="a" d="M990.715,712.681A49.339,49.339,0,0,0,976.4,710.47a46.31,46.31,0,0,0-26.2,7.494,31.306,31.306,0,0,1-13.424-25.986c.107-13.295,14.2-31.174,31.4-31.036s33.778,6.423,30.9,31.544A38.373,38.373,0,0,1,990.715,712.681Z" transform="translate(-936.773 -660.941)"/></clipPath><clipPath id="d"><path class="a" d="M1078.112,557.6H862.806l7.042,14.821c147.663,310.7,191.806,650.585,127.5,981.622h215.306c64.31-331.037,20.163-670.923-127.5-981.622Z" transform="translate(-862.806 -557.596)"/></clipPath></defs><g transform="translate(0)"><g transform="translate(147.731 14.979)"><path class="b" d="M981.4,562.337a99.619,99.619,0,0,1,91.627,60.389c125.654,294.056,160.42,611.516,100.255,921.229v0H957.974v0c55.123-283.743,30.562-573.991-70.566-846.786C863.191,631.848,911,562.337,980.666,562.337Z" transform="translate(-881.039 -562.337)"/><path class="c" d="M1041.707,745.047c-59.73,0-108.091,41.793-107.649,93.128a1560.381,1560.381,0,0,1-28.669,311.23v0H1120.7v0a1560.031,1560.031,0,0,0,28.656-312.655c-.487-50.775-48.564-91.7-107.646-91.7Z" transform="translate(-828.455 -167.786)"/><g transform="translate(62.718 385.446)"><path class="d" d="M902.455,686.038s81.889,42.848,154.828,5.289c0,0-11.128,34.454-66.355,35.97C921.677,728.355,907.194,698.2,902.455,686.038Z" transform="translate(-897.51 -680.658)"/><path class="d" d="M950.237,687.724a4.512,4.512,0,0,1,1.105-1.109,5.966,5.966,0,0,1,7.545.5,5.478,5.478,0,0,1,.989,1.257,4.449,4.449,0,0,1,.543,1.469,15.393,15.393,0,0,0-2.354-1.624,9.306,9.306,0,0,0-1.194-.534c-.2-.079-.4-.139-.607-.2l-.309-.076a2.273,2.273,0,0,0-.31-.073,8.879,8.879,0,0,0-2.58-.126A17.515,17.515,0,0,0,950.237,687.724Z" transform="translate(-794.329 -681.813)"/><path class="d" d="M900.89,689.324a4.522,4.522,0,0,1,.413-1.51,5.958,5.958,0,0,1,6.8-3.314,5.521,5.521,0,0,1,1.482.6,4.374,4.374,0,0,1,1.2,1.011,14.889,14.889,0,0,0-2.85-.247,9.2,9.2,0,0,0-1.3.127c-.212.032-.42.082-.629.133l-.307.085a2.645,2.645,0,0,0-.3.095,8.8,8.8,0,0,0-2.307,1.172A17.78,17.78,0,0,0,900.89,689.324Z" transform="translate(-900.89 -684.335)"/><path class="d" d="M976.068,700.446a60.524,60.524,0,0,1-12.246,4.977,76.442,76.442,0,0,1-13.011,2.616l-1.656.152c-.553.047-1.1.111-1.659.129l-1.662.079-.831.038c-.278.013-.556.01-.831.013a57.126,57.126,0,0,1-6.654-.265,45.292,45.292,0,0,1-6.568-1.119,31.706,31.706,0,0,1-3.181-.976c-.521-.192-1.037-.4-1.542-.619s-1-.464-1.482-.736a40.825,40.825,0,0,0,6.411,1.235c2.152.25,4.309.385,6.471.43s4.319.016,6.477-.1l.809-.038.808-.06,1.615-.117c.54-.029,1.077-.092,1.614-.142l1.615-.161c4.3-.461,8.568-1.192,12.82-2.08C967.632,702.79,971.856,701.725,976.068,700.446Z" transform="translate(-849.375 -649.545)"/><path class="e" d="M902.455,686.038c1.377,1.109,2.786,2.167,4.22,3.191s2.876,2.038,4.341,3.011c2.935,1.94,5.914,3.8,8.957,5.548a155.554,155.554,0,0,0,18.827,9.26l1.21.5,1.22.474,1.22.474,1.226.448,1.229.452c.407.149.821.288,1.232.43l1.235.43c.41.142.828.268,1.242.4,3.314,1.071,6.66,2.032,10.04,2.837s6.79,1.472,10.221,1.974,6.884.879,10.344,1.065a107.354,107.354,0,0,0,20.739-.85,110.577,110.577,0,0,0,20.243-4.806,126.528,126.528,0,0,0,19.175-8.385l2.316-1.251c.765-.43,1.514-.881,2.278-1.318l1.141-.66.569-.329.559-.347,2.247-1.387c.373-.23.752-.455,1.122-.695l1.1-.727,2.208-1.453c1.469-.973,2.9-2.009,4.367-2.995q-1,.872-2,1.738l-1,.869c-.335.291-.67.581-1.014.856l-2.076,1.659-1.039.828c-.348.272-.708.534-1.062.8l-2.133,1.589-.537.4-.547.379-1.1.755c-.73.5-1.46,1.008-2.2,1.5l-2.249,1.431a111.149,111.149,0,0,1-19.1,9.592c-.414.174-.837.316-1.257.471l-1.264.452-1.264.455c-.42.155-.85.278-1.272.417l-2.563.812-2.59.72a97.753,97.753,0,0,1-10.524,2.246c-.442.07-.885.155-1.33.211l-1.336.171c-.891.107-1.779.243-2.673.316l-2.685.25-2.689.165q-5.384.246-10.774-.032-5.379-.317-10.7-1.156c-.885-.149-1.773-.278-2.651-.455l-1.321-.253c-.442-.083-.881-.165-1.321-.263l-2.626-.574-2.61-.648q-5.2-1.36-10.256-3.169c-.42-.152-.844-.294-1.26-.455l-1.251-.477c-.417-.158-.837-.313-1.252-.477l-1.242-.505-1.238-.509-1.229-.531-1.229-.534-1.216-.556a132.326,132.326,0,0,1-18.619-10.429c-2.951-1.981-5.826-4.069-8.591-6.29A88.964,88.964,0,0,1,902.455,686.038Z" transform="translate(-897.51 -680.658)"/></g><g transform="translate(57.719 315.315)"><path class="f" d="M912.221,717.049a49.358,49.358,0,0,1,13.81-4.379,46.289,46.289,0,0,1,27.032,3.4,31.336,31.336,0,0,0,9.326-27.737c-2.123-13.124-18.767-28.64-35.746-25.866s-32.41,11.516-25.753,35.9A38.315,38.315,0,0,0,912.221,717.049Z" transform="translate(-899.308 -662.138)"/><g class="g"><g transform="translate(38.101 22.198)"><ellipse class="h" cx="13.139" cy="13.198" rx="13.139" ry="13.198"/><ellipse class="i" cx="12.047" cy="12.101" rx="12.047" ry="12.101" transform="translate(2.353 1.949)"/><path class="f" d="M917.625,673.556c.512,1.346-.3,2.572-1.5,3.371-2.035,1.362-2.84-.158-3.352-1.5a2.751,2.751,0,0,1,1.494-3.371C916.577,670.8,917.114,672.21,917.625,673.556Z" transform="translate(-908.681 -663.973)"/></g></g></g><g transform="translate(176.087 311.532)"><path class="f" d="M990.715,712.681A49.339,49.339,0,0,0,976.4,710.47a46.31,46.31,0,0,0-26.2,7.494,31.306,31.306,0,0,1-13.424-25.986c.107-13.295,14.2-31.174,31.4-31.036s33.778,6.423,30.9,31.544A38.373,38.373,0,0,1,990.715,712.681Z" transform="translate(-936.773 -660.941)"/><g class="j"><g class="k"><g transform="translate(36.551 26.947)"><ellipse class="h" cx="12.985" cy="13.042" rx="12.985" ry="13.042"/><ellipse class="i" cx="12.047" cy="12.101" rx="12.047" ry="12.101" transform="translate(1.984 1.748)"/><path class="f" d="M954.8,673.741c.3,1.406-.689,2.493-1.991,3.1-2.218,1.036-2.784-.591-3.087-2a2.745,2.745,0,0,1,1.99-3.1C954.18,670.86,954.5,672.332,954.8,673.741Z" transform="translate(-945.484 -665.14)"/></g></g></g></g><path class="l" d="M956.5,655.161l-6.227,2.578a101.369,101.369,0,0,0-32.81,21.885l-6.919,6.9a6.483,6.483,0,0,1-8.287.73h0a6.55,6.55,0,0,1-1.21-9.646l8.473-9.829a101.463,101.463,0,0,1,29.929-23.715l9.605-5.011a8.829,8.829,0,0,1,11.13,2.521h0A8.906,8.906,0,0,1,956.5,655.161Z" transform="translate(-841.26 -398.829)"/><path class="l" d="M945.824,665.168l6.227,2.578a101.4,101.4,0,0,1,32.811,21.882l6.923,6.9a6.482,6.482,0,0,0,8.286.733h0a6.553,6.553,0,0,0,1.211-9.646l-8.474-9.829a101.536,101.536,0,0,0-29.93-23.718l-9.608-5.008a8.82,8.82,0,0,0-11.127,2.518h0A8.906,8.906,0,0,0,945.824,665.168Z" transform="translate(-752.979 -377.226)"/></g><path class="b" d="M1133.4,754.3l-6.774,4.749a595.841,595.841,0,0,1-214.393,94.107l-32.631,7.15c-6.354,1.393-12.66,2.97-18.976,4.518a21.3,21.3,0,0,1-24.691-12.54h0a21.694,21.694,0,0,1-1.261-4.148,21.2,21.2,0,0,1,16.341-24.672l44.463-9.725a595.78,595.78,0,0,0,214.358-93.981l21.109-14.777a21.282,21.282,0,0,1,27.895,11.482h0a21.467,21.467,0,0,1-8.427,26.47C1144.618,746.535,1138.984,750.389,1133.4,754.3Z" transform="translate(-834.281 -242.917)"/><g transform="translate(90.124)"><g class="m"><path class="c" d="M1186.824,752.2l-6.553,5.045A595.745,595.745,0,0,1,970.336,860.915l-32.277,8.616c-6.281,1.674-12.515,3.535-18.751,5.368a21.3,21.3,0,0,1-25.231-11.415h0a21.754,21.754,0,0,1-1.447-4.089,21.2,21.2,0,0,1,15.213-25.383l43.979-11.718a595.763,595.763,0,0,0,209.91-103.544l20.42-15.709a21.28,21.28,0,0,1,28.385,10.208h0a21.469,21.469,0,0,1-7.229,26.823C1197.683,743.93,1192.23,748.034,1186.824,752.2Z" transform="translate(-799.688 -247.965)"/></g></g><path class="b" d="M1186.648,754.3l-6.777,4.749A595.8,595.8,0,0,1,965.48,853.159l-32.634,7.15c-6.35,1.393-12.659,2.97-18.975,4.518a21.3,21.3,0,0,1-24.691-12.54h0a21.738,21.738,0,0,1-1.261-4.148,21.2,21.2,0,0,1,16.344-24.672l44.46-9.725a595.791,595.791,0,0,0,214.362-93.981l21.108-14.777a21.283,21.283,0,0,1,27.9,11.482h0a21.469,21.469,0,0,1-8.427,26.47C1197.866,746.535,1192.233,750.389,1186.648,754.3Z" transform="translate(-719.299 -242.917)"/></g></svg>