<svg xmlns="http://www.w3.org/2000/svg" xmlns:xlink="http://www.w3.org/1999/xlink" viewBox="0 0 567.34 315.4"><defs><style>.cls-1{fill:none;}.cls-2{fill:#f1c914;}.cls-3{fill:#c72e7c;}.cls-4{fill:#fff;}.cls-5{fill:#64a542;}.cls-6{fill:#191814;}.cls-7{fill:#28518b;}.cls-8{fill:#cf5f7d;}.cls-9{fill:#b04863;}.cls-10{clip-path:url(#clip-path);}.cls-11{fill:#312c73;}.cls-12{fill:#552a77;}.cls-13{clip-path:url(#clip-path-2);}.cls-14{fill:#c2cb2d;}.cls-15{clip-path:url(#clip-path-3);}.cls-16{fill:#921d74;}.cls-17{fill:#c42224;}.cls-18{fill:#0093d6;}.cls-19{fill:#f3ce12;}.cls-20{fill:#c7c5c4;}</style><clipPath id="clip-path"><path class="cls-1" d="M69.58,204.63a19.07,19.07,0,0,1-5.21-7.21,23.46,23.46,0,0,1-1.68-7.12,32.39,32.39,0,0,1,2.76-14.13q3-7,7.47-16.42a7.56,7.56,0,0,0,.87-3c0-.9-.84-1-2.59-.38A17.6,17.6,0,0,0,65,160.67a50.87,50.87,0,0,0-4.53,5.74,73.74,73.74,0,0,0-8.2,15.72,140.9,140.9,0,0,0-5.12,17.08l-.72,2.92A2.9,2.9,0,0,1,44.3,204a8,8,0,0,1-3.72-.08,15.32,15.32,0,0,1-4.17-1.71,8.52,8.52,0,0,1-3.08-2.83,4.24,4.24,0,0,1-1-2.78c0-.91.07-1.79.13-2.63a55.71,55.71,0,0,1,3-14q2.31-6.31,4.76-12.72c.06-.12.36-.8.91-2a35.68,35.68,0,0,0,1.44-3.85,12.74,12.74,0,0,0,.68-3.37c0-.91-.47-1.17-1.49-.78a19.21,19.21,0,0,0-6.48,4.25,51.24,51.24,0,0,0-4.85,5.65,44,44,0,0,0-4.3,6.73q-1.86,3.58-3.49,7.25A51.78,51.78,0,0,0,19,192a75.28,75.28,0,0,0-1.54,11.28,15.13,15.13,0,0,0-.32,2.64,2.07,2.07,0,0,1-1.22,1.94q-2.27,1-5.89-.4a14,14,0,0,1-5.89-4,4.66,4.66,0,0,1-1.36-2.69,10.12,10.12,0,0,1,.09-2.36q.72-6.54,1.45-12T6,175.77a91.9,91.9,0,0,1,2.63-10.22q1.63-5.12,4.26-11.17,1.44-3.3,2.13-4.5a3.9,3.9,0,0,1,1.4-1.58q2.09-1,5.26.59a17.06,17.06,0,0,1,5.35,4,26.79,26.79,0,0,1,5.79-4.68A17.93,17.93,0,0,1,40,145.89a17,17,0,0,1,7.25.72,15,15,0,0,1,6.89,4.73c.3.35.56.68.77,1a7.84,7.84,0,0,1,.59,1,31.79,31.79,0,0,1,7.39-6.45q4.31-2.73,10.83-1.81A16.64,16.64,0,0,1,83.8,150.4a15.25,15.25,0,0,1,3,4.64,15,15,0,0,1,1,4.6,17.41,17.41,0,0,1-.27,4.36c-.27,1.4-.59,2.71-1,3.93a74.73,74.73,0,0,1-4.3,10.9A81.2,81.2,0,0,0,78,189.36a24.18,24.18,0,0,0-1.32,5.93,3.32,3.32,0,0,0,.64,2.53,1.58,1.58,0,0,0,1.86,0,14.21,14.21,0,0,0,2.49-1.61,20.08,20.08,0,0,0,2.49-2.33,10.68,10.68,0,0,0,1.72-2.4,35,35,0,0,0,4.67-7.82,70.43,70.43,0,0,1,4-8c.36-.73.72-1.58,1.09-2.56a4.44,4.44,0,0,1,1.63-2.22c1.57-.77,3.49-.54,5.75.67a9.37,9.37,0,0,1,4.58,4.87,3.72,3.72,0,0,1-.14,3,15.67,15.67,0,0,0-1.13,2.47c-1,2.33-2,4.29-2.81,5.88s-1.57,3-2.17,4.23-1.18,2.26-1.72,3.12l-1.54,2.4a27.48,27.48,0,0,1-6.25,7.23,18.71,18.71,0,0,1-7.3,3.72,16.55,16.55,0,0,1-7.7,0A16.35,16.35,0,0,1,69.58,204.63Z"/></clipPath><clipPath id="clip-path-2"><path class="cls-1" d="M143.89,186.79a56.52,56.52,0,0,1-4.8,10.09,24.88,24.88,0,0,1-6,6.69,27.43,27.43,0,0,1-9.79,4.23q-5.88,1.42-12.69-1.49a22.52,22.52,0,0,1-7.65-5.52,28.65,28.65,0,0,1-6.8-14.33,43,43,0,0,1-.6-6.61,56.06,56.06,0,0,1,3.26-18.22,27.48,27.48,0,0,1,10-13.31,19.4,19.4,0,0,1,9.74-4.15,24.19,24.19,0,0,1,12.64,1.59,22.16,22.16,0,0,1,7.53,5.43,26.65,26.65,0,0,1,4.58,7.05,31,31,0,0,1,2.17,7.38A33.79,33.79,0,0,1,146,172L145.7,177q7.16-.36,10-5a7.44,7.44,0,0,1,1.81-2.4c.72-.63,1.9-.78,3.54-.46a9.59,9.59,0,0,1,4.21,2.16,8.14,8.14,0,0,1,2.58,3.66,3.91,3.91,0,0,1-.4,3.73c-.76,1-1.47,2-2.13,2.86a15.57,15.57,0,0,1-9.2,5.4A31,31,0,0,1,143.89,186.79Zm-33.08,5.37c.49,2.41,1.18,4,2.09,4.66a3.46,3.46,0,0,0,2.94.74,6.79,6.79,0,0,0,3.13-1.62c1-.87,1.9-1.68,2.63-2.42a29.76,29.76,0,0,0,4.48-6.37,53.25,53.25,0,0,0,3-7.06,40.84,40.84,0,0,1-8.12-6.78,48.65,48.65,0,0,1-5.93-7.92,64.91,64.91,0,0,0-4.31,12.72A31.16,31.16,0,0,0,110.81,192.16Zm11.32-35.65a14.07,14.07,0,0,0,.87,2.79c.45,1.13,1,2.39,1.72,3.76a26.52,26.52,0,0,0,2.67,4.19,26.88,26.88,0,0,0,3.63,3.9,17.69,17.69,0,0,0,.59-5.91,41.39,41.39,0,0,0-.78-5.33,9.72,9.72,0,0,0-1.63-3.58,3.8,3.8,0,0,0-2.22-1.49,4.6,4.6,0,0,0-2.54.25A6.87,6.87,0,0,0,122.13,156.51Z"/></clipPath><clipPath id="clip-path-3"><path class="cls-1" d="M233,198.13a28.84,28.84,0,0,1-8.48-10.21,32.22,32.22,0,0,1-3.13-10.9,33.79,33.79,0,0,1,.68-9.17,35.66,35.66,0,0,1,2.81-8,34.92,34.92,0,0,1,4.48-6.92,57.2,57.2,0,0,1,5.53-5.76,26.59,26.59,0,0,1,5.71-3.59,27.13,27.13,0,0,1,7.79-2.38,23.71,23.71,0,0,1,8.7.33,18.77,18.77,0,0,1,8.43,4.5,12.44,12.44,0,0,1,4.36,6.78,23.74,23.74,0,0,1,.45,6.7,24.58,24.58,0,0,1-4.48,11.45,26,26,0,0,1-9.2,7.94,29.92,29.92,0,0,1-9.43,2.78A26.65,26.65,0,0,1,236,180.46a18.64,18.64,0,0,0,.22,3.9,10.23,10.23,0,0,0,1.41,3.68,12.85,12.85,0,0,0,2.94,3.28,13.45,13.45,0,0,0,4.85,2.33,14.29,14.29,0,0,0,10.24-.81,31.79,31.79,0,0,0,8.88-6.21,50.77,50.77,0,0,0,6.85-8.24q2.85-4.33,4.3-6.91c.42-.86.83-1.81,1.22-2.85a4.46,4.46,0,0,1,1.86-2.31,5,5,0,0,1,3-.26,9.41,9.41,0,0,1,3.26,1.37,12.44,12.44,0,0,1,2.77,2.38,4.61,4.61,0,0,1,1.22,2.6,5.07,5.07,0,0,1-.5,3.18c-.51,1-1,2-1.4,2.85a98,98,0,0,1-5.84,9.67q-2.22,3-4.22,5.28a36.84,36.84,0,0,1-7.65,6.45,32.31,32.31,0,0,1-10.61,4.44,31.87,31.87,0,0,1-12.46.22A29.52,29.52,0,0,1,233,198.13ZM243,171a17.22,17.22,0,0,0,9.79-5.33,25.08,25.08,0,0,0,5.16-8.66,6.72,6.72,0,0,0,.36-3.45,2.72,2.72,0,0,0-1.45-2.32,22.23,22.23,0,0,0-7.06,3.8,35.46,35.46,0,0,0-5.35,5.4,32,32,0,0,0-6.16,10.68A15.51,15.51,0,0,0,243,171Z"/></clipPath></defs><title>header</title><g id="Layer_2" data-name="Layer 2"><g id="YOUR_DESIGN" data-name="YOUR DESIGN"><path class="cls-2" d="M469.11,174.2l2.58.43a188.69,188.69,0,0,0,73.95-2.18l10.29-2.37c2-.47,4-.87,6-1.28a6.75,6.75,0,0,0,5.37-6.91h0a6.64,6.64,0,0,0-8.19-6.16l-14,3.24a189,189,0,0,1-73.93,2.21l-8-1.35a6.74,6.74,0,0,0-6.43,7h0a6.74,6.74,0,0,0,6,6.4C464.86,173.5,467,173.84,469.11,174.2Z"/><path class="cls-2" d="M456.6,0h66.81l-2.19,4.58c-45.82,96-62.61,208.56-42.66,310.82H411.75C391.8,213.14,408.6,100.56,454.41,4.58Z"/><path class="cls-3" d="M437,206.14h0a33.38,33.38,0,0,0-33.38,34.24,454.49,454.49,0,0,0,8.12,75h66.81a454.11,454.11,0,0,1-8.16-76.61A33.41,33.41,0,0,0,437,206.14Z"/><path class="cls-4" d="M482.83,99.32c-7.64-4.5-12.3-.61-14.25,1.79a3.55,3.55,0,0,0-.74,1.74,6.11,6.11,0,1,1,5.43,9.55c5.94,3.79,13.89.32,13.89.32C489.94,105.53,482.83,99.32,482.83,99.32Z"/><path class="cls-5" d="M478.93,107.09a6.11,6.11,0,0,0-11.09-4.24,3.64,3.64,0,0,0,.07,1.47c0,.15.09.29.13.43a4.72,4.72,0,0,1,1.41-1.66,4.53,4.53,0,0,1,1.53-.74,4.58,4.58,0,0,1,1.81-.13,4.66,4.66,0,0,1-.72,9.29,10.93,10.93,0,0,0,1.2.89A6.1,6.1,0,0,0,478.93,107.09Z"/><path class="cls-6" d="M472.07,111.51a4.66,4.66,0,0,0,.72-9.29,4.58,4.58,0,0,0-1.81.13,1.45,1.45,0,1,1-1.7,1.24,1.24,1.24,0,0,1,.17-.5,4.72,4.72,0,0,0-1.41,1.66A13.85,13.85,0,0,0,472.07,111.51Z"/><path class="cls-4" d="M470.54,105.22a1.45,1.45,0,0,0,.44-2.87,4.53,4.53,0,0,0-1.53.74,1.24,1.24,0,0,0-.17.5A1.45,1.45,0,0,0,470.54,105.22Z"/><path class="cls-1" d="M487.16,112.72s-15.16,6.64-19.25-8.4a3.58,3.58,0,0,1,.67-3.21c1.95-2.4,6.61-6.29,14.25-1.79C482.83,99.32,489.94,105.53,487.16,112.72Z"/><path class="cls-4" d="M451.78,97.57l.23,0Z"/><path class="cls-4" d="M453.83,98.09l.18.07Z"/><path class="cls-4" d="M445.72,113.72l-.33-.06Z"/><path class="cls-4" d="M445.1,113.61l-.32-.07Z"/><path class="cls-4" d="M452.93,97.79l.14,0Z"/><path class="cls-4" d="M449.36,97.53l.27,0Z"/><path class="cls-4" d="M446.54,98.1l.32-.1Z"/><path class="cls-4" d="M448.14,97.7l.08,0Z"/><path class="cls-4" d="M450.73,97.48h0Z"/><path class="cls-4" d="M458.41,101.84a.44.44,0,0,1,.08.11A.76.76,0,0,0,458.41,101.84Z"/><path class="cls-4" d="M458.77,102.39a.43.43,0,0,1,0,.07A.43.43,0,0,0,458.77,102.39Z"/><path class="cls-4" d="M458,101.23l.08.09Z"/><path class="cls-4" d="M457.5,100.66l.1.12Z"/><path class="cls-4" d="M454.78,98.51l.14.08Z"/><path class="cls-4" d="M455.53,99l.14.1Z"/><path class="cls-4" d="M456.9,100l.11.1Z"/><path class="cls-4" d="M450.35,113.68l-.36.07Z"/><path class="cls-4" d="M453.05,112.75l-.35.18Z"/><path class="cls-4" d="M454.38,112l-.36.25Z"/><path class="cls-4" d="M451.71,113.32l-.36.11Z"/><path class="cls-4" d="M452.38,113.06l-.35.15Z"/><path class="cls-4" d="M453.72,112.38c-.12.07-.24.15-.36.21C453.48,112.53,453.6,112.45,453.72,112.38Z"/><path class="cls-4" d="M456.29,110.25l-.37.4Z"/><path class="cls-4" d="M455.66,110.89l-.36.34Z"/><path class="cls-4" d="M455,111.46l-.35.29Z"/><path class="cls-4" d="M451,113.52a2.37,2.37,0,0,1-.36.09A2.37,2.37,0,0,0,451,113.52Z"/><path class="cls-4" d="M447.66,113.9h0Z"/><path class="cls-4" d="M448.32,113.9h0Z"/><path class="cls-4" d="M446.36,113.81l-.34,0Z"/><path class="cls-4" d="M447,113.87l-.34,0Z"/><path class="cls-4" d="M459.09,103l0,0,0,0Z"/><path class="cls-4" d="M449.67,113.8l-.36,0Z"/><path class="cls-4" d="M449,113.87l-.36,0Z"/><path class="cls-4" d="M456.3,99.51l.12.1Z"/><path class="cls-4" d="M444.38,113.45l.12,0-.12,0Z"/><path class="cls-4" d="M458.21,107.58c-.14.24-.28.47-.43.7C457.93,108.05,458.07,107.82,458.21,107.58Z"/><path class="cls-4" d="M459.19,105.64v0c-.08.19-.17.38-.26.57C459,106,459.1,105.83,459.19,105.64Z"/><path class="cls-4" d="M457,109.46c-.14.18-.28.36-.43.53C456.67,109.82,456.81,109.64,457,109.46Z"/><path class="cls-4" d="M457.67,108.46c-.19.28-.37.55-.57.81C457.3,109,457.48,108.74,457.67,108.46Z"/><path class="cls-4" d="M458.72,106.62c-.1.21-.21.41-.32.61C458.51,107,458.62,106.83,458.72,106.62Z"/><path class="cls-5" d="M443.34,113.16h0Z"/><path class="cls-5" d="M444.18,113.4l.2,0h0Z"/><path class="cls-5" d="M443.92,113.33l-.31-.09Z"/><path class="cls-6" d="M442.3,112.81l-.29-.11Z"/><path class="cls-6" d="M441.8,112.62l-.28-.11Z"/><path class="cls-6" d="M441.34,112.44l-.32-.14Z"/><path class="cls-6" d="M440.91,112.25l-.4-.19Z"/><path class="cls-6" d="M443.05,113.07l.29.09h0Z"/><path class="cls-6" d="M442.81,113l-.3-.1Z"/><path class="cls-1" d="M449.31,113.84l-.31,0Z"/><path class="cls-1" d="M447.31,113.89l-.31,0Z"/><path class="cls-1" d="M446.66,113.84l-.3,0Z"/><path class="cls-1" d="M448.64,113.89h0Z"/><path class="cls-1" d="M450,113.75l-.32,0Z"/><path class="cls-1" d="M448,113.91h0Z"/><path class="cls-1" d="M452,113.21l-.32.11Z"/><path class="cls-1" d="M455.3,111.23l-.28.23Z"/><path class="cls-1" d="M454.67,111.75l-.29.2Z"/><path class="cls-1" d="M454,112.2l-.3.18Z"/><path class="cls-1" d="M455.92,110.65l-.26.24Z"/><path class="cls-1" d="M450.67,113.61l-.32.07Z"/><path class="cls-1" d="M456.29,110.25l.23-.26Z"/><path class="cls-1" d="M446,113.76l-.3,0Z"/><path class="cls-1" d="M451.35,113.43a1.92,1.92,0,0,1-.32.09A1.92,1.92,0,0,0,451.35,113.43Z"/><path class="cls-1" d="M453.36,112.59l-.31.16Z"/><path class="cls-1" d="M452.7,112.93l-.32.13Z"/><path class="cls-1" d="M457,100.14c.17.17.33.34.49.52C457.34,100.48,457.18,100.31,457,100.14Z"/><path class="cls-1" d="M457.1,109.27l-.15.19Z"/><path class="cls-1" d="M454.92,98.59c.21.11.41.24.61.36C455.33,98.83,455.13,98.7,454.92,98.59Z"/><path class="cls-1" d="M455.67,99.05a7.26,7.26,0,0,1,.63.46A7.26,7.26,0,0,0,455.67,99.05Z"/><path class="cls-1" d="M454,98.16a7.79,7.79,0,0,1,.77.35A7.79,7.79,0,0,0,454,98.16Z"/><path class="cls-1" d="M457.78,108.28l-.11.18Z"/><path class="cls-1" d="M453.07,97.84a6.75,6.75,0,0,1,.76.25A6.75,6.75,0,0,0,453.07,97.84Z"/><path class="cls-1" d="M459.19,105.62c.18-.41.36-.83.52-1.28a10.66,10.66,0,0,0-.61-1.38A3.1,3.1,0,0,1,459.19,105.62Z"/><path class="cls-1" d="M457.6,100.78c.13.15.26.3.37.45C457.86,101.08,457.73,100.93,457.6,100.78Z"/><path class="cls-1" d="M452,97.6c.32.05.63.12.92.19C452.64,97.72,452.33,97.65,452,97.6Z"/><path class="cls-1" d="M458.93,106.19l-.21.43Z"/><path class="cls-1" d="M458.81,102.46c.1.16.18.31.26.45C459,102.77,458.91,102.62,458.81,102.46Z"/><path class="cls-1" d="M458.49,102l.28.44Z"/><path class="cls-1" d="M458.4,107.23l-.19.35Z"/><path class="cls-1" d="M458.05,101.32c.13.17.25.35.36.52C458.3,101.67,458.18,101.5,458.05,101.32Z"/><path class="cls-1" d="M456.42,99.61c.17.14.33.29.48.43C456.75,99.9,456.59,99.75,456.42,99.61Z"/><path class="cls-1" d="M448.22,97.68c.39-.07.77-.11,1.14-.15C449,97.57,448.61,97.61,448.22,97.68Z"/><path class="cls-1" d="M446.86,98c.44-.12.87-.23,1.28-.3C447.73,97.77,447.3,97.88,446.86,98Z"/><path class="cls-1" d="M445.39,113.66l-.29,0Z"/><path class="cls-1" d="M449.63,97.51a10.31,10.31,0,0,1,1.1,0A10.31,10.31,0,0,0,449.63,97.51Z"/><path class="cls-1" d="M444.78,113.54l-.28-.06Z"/><path class="cls-1" d="M445.14,98.57a14.4,14.4,0,0,1,1.4-.47A14.4,14.4,0,0,0,445.14,98.57Z"/><path class="cls-1" d="M450.85,97.49a9.19,9.19,0,0,1,.93.08A9.19,9.19,0,0,0,450.85,97.49Z"/><path class="cls-4" d="M457,109.46l.15-.19c.2-.26.38-.53.57-.81l.11-.18c.15-.23.29-.46.43-.7l.19-.35c.11-.2.22-.4.32-.61l.21-.43c.09-.19.18-.38.26-.57a3.1,3.1,0,0,0-.09-2.66l0,0c-.08-.14-.16-.29-.26-.45a.43.43,0,0,0,0-.07l-.28-.44a.44.44,0,0,0-.08-.11c-.11-.17-.23-.35-.36-.52l-.08-.09c-.11-.15-.24-.3-.37-.45l-.1-.12c-.16-.18-.32-.35-.49-.52l-.11-.1c-.15-.14-.31-.29-.48-.43l-.12-.1a7.26,7.26,0,0,0-.63-.46l-.14-.1c-.2-.12-.4-.25-.61-.36l-.14-.08a7.79,7.79,0,0,0-.77-.35l-.18-.07a6.75,6.75,0,0,0-.76-.25l-.14,0c-.29-.07-.6-.14-.92-.19l-.23,0a9.19,9.19,0,0,0-.93-.08h-.12a10.31,10.31,0,0,0-1.1,0l-.27,0c-.37,0-.75.08-1.14.15l-.08,0c-.41.07-.84.18-1.28.3l-.32.1a14.4,14.4,0,0,0-1.4.47,17.61,17.61,0,0,0-4.33,4.11,6.1,6.1,0,0,1,8.69,7.15c-.49,1.66-2.68,2.92-5.12,3.62l.12,0,.28.06.32.07.29,0,.33.06.3,0,.34,0,.3,0,.34,0,.31,0h1.33l.36,0,.31,0,.36,0,.32,0,.36-.07.32-.07a2.37,2.37,0,0,0,.36-.09,1.92,1.92,0,0,0,.32-.09l.36-.11.32-.11.35-.15.32-.13.35-.18.31-.16c.12-.06.24-.14.36-.21l.3-.18.36-.25.29-.2.35-.29.28-.23.36-.34.26-.24.37-.4.23-.26C456.67,109.82,456.81,109.64,457,109.46Z"/><path class="cls-5" d="M443.61,113.24l-.26-.07Z"/><path class="cls-5" d="M444.18,113.4l-.26-.07Z"/><path class="cls-5" d="M440.79,104.35a4.44,4.44,0,0,1,1.64-.48,4.5,4.5,0,0,1,1.81.17,4.67,4.67,0,0,1-.9,9.12h0l.26.07.31.09.26.07.2,0c2.44-.7,4.63-2,5.12-3.62a6.1,6.1,0,0,0-8.69-7.15,12.36,12.36,0,0,0-1.7,3.13A4.63,4.63,0,0,1,440.79,104.35Z"/><path class="cls-6" d="M443.05,113.07l-.24-.08Z"/><path class="cls-6" d="M441.52,112.51l-.18-.07Z"/><path class="cls-6" d="M441,112.3l-.11,0Z"/><path class="cls-6" d="M442,112.7l-.21-.08Z"/><path class="cls-6" d="M442.51,112.89l-.21-.08Z"/><path class="cls-6" d="M440.51,112.06l.4.19.11,0,.32.14.18.07.28.11.21.08.29.11.21.08.3.1.24.08.29.09a4.67,4.67,0,0,0,.9-9.12,4.5,4.5,0,0,0-1.81-.17,1.45,1.45,0,0,1-.9,2.76,1.46,1.46,0,0,1-1-1.81,1.49,1.49,0,0,1,.24-.47,4.63,4.63,0,0,0-1.68,1.46,9.41,9.41,0,0,0-.6,3A3.48,3.48,0,0,0,440.51,112.06Z"/><path class="cls-4" d="M441.53,106.63a1.45,1.45,0,0,0,.9-2.76,4.44,4.44,0,0,0-1.64.48,1.49,1.49,0,0,0-.24.47A1.46,1.46,0,0,0,441.53,106.63Z"/><path class="cls-7" d="M474.4,84.06,476,85.4a31.3,31.3,0,0,0,10.71,5.89l2.88.91a2,2,0,0,1,1.4,2.18h0a2,2,0,0,1-2.47,1.71l-3.91-.92a31.39,31.39,0,0,1-10.8-4.83l-2.75-1.92a2.74,2.74,0,0,1-.91-3.42h0A2.75,2.75,0,0,1,474.4,84.06Z"/><path class="cls-7" d="M445.47,86.13l-1.31,1.63a31.49,31.49,0,0,1-9.37,7.85l-2.65,1.45a2,2,0,0,0-.95,2.41h0a2,2,0,0,0,2.76,1.2L437.6,99a31.57,31.57,0,0,0,9.66-6.84l2.33-2.42a2.75,2.75,0,0,0,.23-3.53h0A2.74,2.74,0,0,0,445.47,86.13Z"/><path class="cls-8" d="M471.87,124.86c-2.34-7.69-10.27-7.56-12.74-1s-9.5,8.75-9.5,8.75,7,9.41,8.67,14,8.7,8,10.75,8.14c1.17.1,3,.08,4.32.05a9.37,9.37,0,0,0,6.06-2.34,9.14,9.14,0,0,0,2.85-4.93c1.35-6-3.85-11.85-8.49-12.52a8.88,8.88,0,0,0,1.58-.26,6.54,6.54,0,0,0,4.84-7.21c-.29-2.16-.71-4.25-2.38-5.55-1.24-1-5.52-2-7.22.07"/><path class="cls-9" d="M471.87,124.86a10.32,10.32,0,0,0-1.85-3.38,6.5,6.5,0,0,0-3.14-2.07,5.51,5.51,0,0,0-3.67.27,6.54,6.54,0,0,0-2.79,2.42,8.06,8.06,0,0,0-.48.8,8.36,8.36,0,0,0-.39.86l-.36.91c-.13.31-.26.61-.42.91a13.51,13.51,0,0,1-2.32,3.24,16.28,16.28,0,0,1-3.08,2.53,19.79,19.79,0,0,1-1.73,1c-.3.15-.6.29-.91.42s-.61.25-1,.37l.24-.76c1.61,2.15,3.14,4.33,4.61,6.57.74,1.11,1.45,2.25,2.14,3.41a31.53,31.53,0,0,1,1.87,3.61l.37.91.21.41.23.4a9.57,9.57,0,0,0,1.14,1.5,16.24,16.24,0,0,0,2.93,2.48,21.6,21.6,0,0,0,3.4,1.86c.3.13.59.24.89.35a8.06,8.06,0,0,0,.89.26,2.2,2.2,0,0,0,.41.07l.48,0,1,0c.66,0,1.32,0,2,0l1,0c.31,0,.62,0,.93-.09A8.7,8.7,0,0,0,478,152.9a8.59,8.59,0,0,0,3.45-4.3,8.83,8.83,0,0,0,.46-1.82,8.69,8.69,0,0,0-.28-3.72,10.91,10.91,0,0,0-1.68-3.4,11.68,11.68,0,0,0-2.71-2.68,8.58,8.58,0,0,0-3.46-1.49h0a.43.43,0,0,1-.36-.49.45.45,0,0,1,.41-.36,6.34,6.34,0,0,0,.72-.08l.74-.14a6.64,6.64,0,0,0,1.37-.51,6.22,6.22,0,0,0,2.22-1.92,6.34,6.34,0,0,0,.7-1.31,5.21,5.21,0,0,0,.23-.7,2.21,2.21,0,0,0,.08-.37,2.29,2.29,0,0,0,.07-.36l0-.37c0-.13,0-.25,0-.38a6.27,6.27,0,0,0,0-.75c-.05-.5-.12-1-.21-1.53a7.77,7.77,0,0,0-1-2.87,4.41,4.41,0,0,0-1-1.13,4.77,4.77,0,0,0-1.34-.71,8.44,8.44,0,0,0-3-.52,5,5,0,0,0-1.52.26,3.08,3.08,0,0,0-1.27.87,3.2,3.2,0,0,1,1.24-.94,5.14,5.14,0,0,1,1.54-.35,7.7,7.7,0,0,1,1.59.06,10.54,10.54,0,0,1,1.55.36,6.67,6.67,0,0,1,.74.29,3.68,3.68,0,0,1,.71.42,4.76,4.76,0,0,1,1.1,1.18,8.36,8.36,0,0,1,1.15,3c.11.53.2,1,.27,1.57a5.52,5.52,0,0,1,.06.81c0,.14,0,.28,0,.41l0,.41a1.93,1.93,0,0,1-.06.41c0,.13,0,.27-.07.4s-.14.53-.24.79a7,7,0,0,1-.75,1.47A6.76,6.76,0,0,1,477,134.6a7.16,7.16,0,0,1-2.34.79,6.94,6.94,0,0,1-.83.11l.05-.86a9.19,9.19,0,0,1,3.85,1.57,12.49,12.49,0,0,1,3,2.85,11.58,11.58,0,0,1,1.89,3.7,9.64,9.64,0,0,1,.36,4.17,10.12,10.12,0,0,1-1.41,4,9.53,9.53,0,0,1-3,3,10,10,0,0,1-3.95,1.47c-.35,0-.7.08-1.05.09l-1,0q-1,0-2,0l-1,0-.52,0a4.85,4.85,0,0,1-.57-.09,11.47,11.47,0,0,1-2-.68,22.76,22.76,0,0,1-3.59-2,17.75,17.75,0,0,1-3.14-2.68,11.14,11.14,0,0,1-1.27-1.69l-.26-.46-.24-.48-.38-.95a34.67,34.67,0,0,0-1.77-3.49c-.66-1.14-1.35-2.27-2.07-3.38-1.43-2.23-2.93-4.43-4.48-6.58h0a.48.48,0,0,1,.11-.68.46.46,0,0,1,.14-.07c.28-.09.58-.2.87-.32l.87-.38a17.33,17.33,0,0,0,4.64-3.25,13.08,13.08,0,0,0,2.27-3c.15-.27.28-.56.42-.84l.38-.89a8.09,8.09,0,0,1,1-1.76,7.08,7.08,0,0,1,3.12-2.5,5.89,5.89,0,0,1,4-.15,6.75,6.75,0,0,1,3.19,2.26A10.35,10.35,0,0,1,471.87,124.86Z"/><path class="cls-8" d="M452.83,133.54s12,4.41,17.78,1.68"/><path class="cls-9" d="M452.86,133.48c1.45.42,2.92.78,4.4,1.08.74.15,1.48.3,2.23.41s1.48.24,2.22.32c1.5.17,3,.15,4.45.2a18.93,18.93,0,0,0,4.42-.32s.07,0,.07,0a.06.06,0,0,1,0,.07,6.53,6.53,0,0,1-2.12,1,10.84,10.84,0,0,1-2.32.4,11.43,11.43,0,0,1-2.34-.07c-.76-.1-1.52-.24-2.28-.38s-1.51-.31-2.25-.49-1.48-.4-2.21-.62-1.45-.47-2.17-.73-1.43-.52-2.13-.82a.07.07,0,0,1,0-.08s.05-.05.07,0Z"/><path class="cls-9" d="M450.16,130a2.66,2.66,0,0,1,.19,1.34,3,3,0,0,1-.44,1.32,3.21,3.21,0,0,1-.43.56,2.88,2.88,0,0,1-.56.43,2.52,2.52,0,0,1-1.3.38c.16-.18.33-.29.48-.45a5.61,5.61,0,0,0,.42-.43c.14-.14.26-.3.38-.44s.22-.31.31-.48a6.73,6.73,0,0,0,.52-1C449.88,130.78,450,130.39,450.16,130Z"/><circle class="cls-4" cx="469.94" cy="124.77" r="0.53"/><path class="cls-4" d="M469.38,123.83a3.5,3.5,0,0,1-.67-.66,7.37,7.37,0,0,1-.45-.77,7.4,7.4,0,0,0-.53-.72,4.25,4.25,0,0,0-.65-.62l0,0a3.4,3.4,0,0,1,.84.45,6.13,6.13,0,0,1,.71.64,2.88,2.88,0,0,1,.59.75,2.47,2.47,0,0,1,.15.46,1.6,1.6,0,0,1,.05.5Z"/><circle class="cls-4" cx="469.17" cy="152.7" r="0.53"/><path class="cls-4" d="M467.86,152.45a2.41,2.41,0,0,1-.6,0,5.4,5.4,0,0,1-.58-.1,5.31,5.31,0,0,1-1.06-.48,9.05,9.05,0,0,1-1-.57,5.42,5.42,0,0,1-.92-.72l0-.05a6.42,6.42,0,0,0,1,.5c.35.14.7.27,1.06.39a8,8,0,0,1,1.08.35,4.54,4.54,0,0,1,1,.62Z"/><path class="cls-3" d="M423.11,159.72l-1.89-1.8a188.71,188.71,0,0,1-42.44-60.61l-4.25-9.67c-.82-1.88-1.71-3.74-2.58-5.6a6.74,6.74,0,0,1,2.33-8.43h0a6.63,6.63,0,0,1,9.84,2.88l5.78,13.18a188.82,188.82,0,0,0,42.4,60.6l5.87,5.62a6.75,6.75,0,0,1-1.79,9.37h0a6.75,6.75,0,0,1-8.7-1C426.21,162.72,424.66,161.21,423.11,159.72Z"/><path class="cls-2" d="M423.41,159.65l-1.83-1.86a188.79,188.79,0,0,1-40.5-61.92l-3.94-9.8c-.77-1.9-1.59-3.79-2.4-5.68A6.73,6.73,0,0,1,377.33,72h0a6,6,0,0,1,1.22-.61,6.67,6.67,0,0,1,8.52,3.8l5.36,13.35a189,189,0,0,0,40.46,61.92l5.7,5.8a6.74,6.74,0,0,1-2.09,9.3h0a6.73,6.73,0,0,1-8.66-1.24C426.41,162.75,424.92,161.19,423.41,159.65Z"/><g class="cls-10"><path class="cls-11" d="M6.19,146.83l24.39-1s-11.11,56.48-11.51,64.73S0,204.93,0,204.93Z"/><path class="cls-3" d="M20.38,186.89,39,177.82l24.06-6.31-4-24.75-30.17-3.25c-.64,3.27-1.5,6.51-1.93,9.82C25.53,164.45,21.19,186,20.38,186.89Z"/><path class="cls-2" d="M55.52,153.3S41.11,162.45,35.74,179s-7.67,23.86-7.67,23.86l19.6,5.81,18.1-44.39L52.7,214.75l31.09-2.32-2.44-21.38L96.64,143,58.32,139.4Z"/><path class="cls-12" d="M78.28,195.25s-1.64,9,3.2,13.53,15,5.6,15,5.6l19.86-42.64-19.68-7.32Z"/></g><g class="cls-13"><polygon class="cls-14" points="87.19 179.57 119.6 184.72 131.04 146.57 105.19 129.06 87.19 179.57"/><path class="cls-1" d="M131,171.15l.1.11.11-.08Z"/><path class="cls-3" d="M114.23,193.09l-.2.09Z"/><path class="cls-3" d="M129.12,180.09a21.22,21.22,0,0,1-2.79-1.23L126,180.1l-6.4,10.48-5.41,2.51-.2.09.2-.09c1.2-.6,7.26-4.2-1.85-12.64-10-9.31-21.21-.5-21.21-.5l5.63,27.76,33.12,7.59s10.6-13.45,17-26.7l-3-1.81S133.59,185.15,129.12,180.09Z"/><path class="cls-5" d="M170,168.3l-15.79-3-3,4.08c1.38,4.89-.84,12-4.32,19.23l3.58,2.15,21.39-7.36Z"/><path class="cls-5" d="M128.4,168.23l.29.3.38-1.66s6.16-10,17-3.36c-1.58-9.12-6.25-21.29-20-19.23-15.7,2.35-10.92,21.11-10.92,21.11,1.58,7.42,7.63,11.59,11.26,13.47l2.36-10.3Z"/><path class="cls-5" d="M151.23,169.37,145.7,177c-10.15-1.08-15.68-4.83-15.68-4.83l1.1-.86-.1-.11-2.33-2.59-2.36,10.3a21.22,21.22,0,0,0,2.79,1.23c4.47,5.06,14.77,6.7,14.77,6.7l3,1.81C150.39,181.4,152.61,174.26,151.23,169.37Z"/><polygon class="cls-5" points="128.69 168.56 128.69 168.53 128.4 168.23 128.69 168.56"/><path class="cls-5" d="M131.12,171.26l-1.1.86s5.53,3.75,15.68,4.83C136.44,176,131.85,172,131.12,171.26Z"/><path class="cls-3" d="M148.72,165.43a26.22,26.22,0,0,0-2.68-1.92c-10.81-6.61-17,3.36-17,3.36l-.38,1.66,2.61,2.59-.07.06-.11.08c.73.69,5.32,4.71,14.58,5.69l5.53-7.58A7.59,7.59,0,0,0,148.72,165.43Z"/></g><polygon class="cls-1" points="192.52 172.68 192.52 172.68 192.52 172.68 192.52 172.68"/><path class="cls-1" d="M208.66,174.18c0,.16-.1.32-.14.48C208.56,174.51,208.61,174.35,208.66,174.18Z"/><path class="cls-1" d="M209,184.52l-3.63-1.45A34.72,34.72,0,0,0,209,184.52Z"/><path class="cls-12" d="M175.9,195.32a4.45,4.45,0,0,1-3.77-1.45,9.64,9.64,0,0,1-2.08-4.48,12.67,12.67,0,0,1,.27-6.17A57.08,57.08,0,0,1,174.94,169q3.17-6.6,6.07-14.3a3.93,3.93,0,0,0,.18-2,7.68,7.68,0,0,0-1.09-2.33,14,14,0,0,0-6.53-5.64c-2.77-1.13-4.77-.84-6,.88-.6,1-1.15,2-1.63,2.94s-.93,2-1.36,3.12q-2.81,6.78-6,14a37,37,0,0,0-3,15.95,27.67,27.67,0,0,0,1.95,9.1,24.32,24.32,0,0,0,6.39,9.18,23.11,23.11,0,0,0,8.65,5.5,19.38,19.38,0,0,0,8.3,1l.74-.11-3.05-11.85A5.77,5.77,0,0,1,175.9,195.32Z"/><path class="cls-2" d="M198.42,155.84a71.56,71.56,0,0,1-2.61,9.21s4,5.68,12.66,9.76c0-.05,0-.1.05-.15s.09-.32.14-.48c.35-1.21.81-2.92,1.4-5.12a34.85,34.85,0,0,0,1.08-8.55,28.87,28.87,0,0,0-1.31-8.95,12.48,12.48,0,0,0-1.52-3.16C208.25,148.38,199.42,146.67,198.42,155.84Z"/><path class="cls-2" d="M192.52,172.68h0a87.42,87.42,0,0,1-3.53,8.25,64.3,64.3,0,0,1-3.81,6.08,58,58,0,0,1-4.44,5.55s13.91-1.06,7.44,11.61a24,24,0,0,0,5.8-4,50.27,50.27,0,0,0,6.38-8.05,73,73,0,0,0,4.94-9.1S197.17,177.57,192.52,172.68Z"/><path class="cls-2" d="M180.74,192.56a11.37,11.37,0,0,1-2.21,1.83l3.05,11.85a22.27,22.27,0,0,0,6.6-2.07C194.65,191.5,180.74,192.56,180.74,192.56Z"/><path class="cls-11" d="M211.5,175.42h0a10.66,10.66,0,0,1-3-.61,33.46,33.46,0,0,1-3.17,8.25h0l3.63,1.45c.65.21,1.3.4,1.94.56C205.56,179.79,211.5,175.42,211.5,175.42Z"/><path class="cls-11" d="M195.81,165.05a71.56,71.56,0,0,0,2.61-9.21c1-9.17,9.83-7.46,9.89-7.44a12.35,12.35,0,0,0-3.83-3.59,11.71,11.71,0,0,0-5.08-1.87,9.48,9.48,0,0,0-3.94.55,8.61,8.61,0,0,0-3,2,17.2,17.2,0,0,0-2,2.41q-3.9,6.09-2.44,14.39a24.56,24.56,0,0,0,4.53,10.4h0A58.55,58.55,0,0,0,195.81,165.05Z"/><path class="cls-3" d="M226,183.44a17.09,17.09,0,0,0,5.52-5.58,7,7,0,0,0,1-3.66q0-2-2.72-4.46a9.61,9.61,0,0,0-4.76-2.33,3.84,3.84,0,0,0-3.76,1.09,17.91,17.91,0,0,0-2.13,3.05,6.31,6.31,0,0,1-2.58,2.51,9.42,9.42,0,0,1-3.58,1.27,7.8,7.8,0,0,1-1.46.09h0s-5.94,4.37-.6,9.66a23.73,23.73,0,0,0,6.46.75A16.39,16.39,0,0,0,226,183.44Z"/><path class="cls-11" d="M208.47,174.81h0c-8.7-4.08-12.66-9.76-12.66-9.76a58.55,58.55,0,0,1-3.29,7.63c4.65,4.89,12.77,10.37,12.78,10.38h0a33.46,33.46,0,0,0,3.17-8.25Z"/><g class="cls-15"><polygon class="cls-16" points="249.02 189.69 257.37 212.83 311.98 176.05 278.66 160.52 249.02 189.69"/><path class="cls-5" d="M259.83,134.41,258,157.05l-3.7,33.79,1.44,2s10.74,2.31,5,11-52.49-2.05-52.49-2.05L209.71,151Z"/><path class="cls-3" d="M222.11,167.85s5.42,2.24,16.18,3.31S256.89,152,256.89,152a7.2,7.2,0,0,0,0-.73,15.47,15.47,0,0,0-1.4-4.94c-.4-1.18-.47-3,1-5.77l17.83,3.31-5.2,28.77L254.11,185,236,180.45a12.15,12.15,0,0,0-11.59,3.2l-1.14,1.13C215.15,179.81,222.11,167.85,222.11,167.85Z"/></g><path class="cls-17" d="M153.75,142a2.83,2.83,0,0,1-2.06,2.33c-1.31.36-3.44,1.38-2.15,4,1.47,3,4.09.89,5,0a2.71,2.71,0,0,0,.51-.67,12.63,12.63,0,0,0,1.38-4.23c0-1.06,2-2.12,3.64-1.8,2.34.45,3.49-4.86,3.23-6.53-.19-1.2,1-1.78,1.62-2a2.35,2.35,0,0,1,.69-.14c.86-.07,3.78-.45,4.17-2.63.46-2.56-2.05-4.26-5.59-1.25s-4.92,4.64-5.4,7.45c-.33,1.93-1.24,2.35-1.78,2.42a2.86,2.86,0,0,0-1.19.47c-.81.54-2,1.46-2,2.4C153.76,141.87,153.76,141.92,153.75,142Z"/><path class="cls-18" d="M281.34,155.55c-1,.69-1.71.08-3,.91s-1.23,2-2.44,2.43c-1,.39-2.43.2-2.88-.54-.76-1.26,1.48-4,3.25-5.52s5-3.47,6.23-2.41C283.52,151.32,283,154.44,281.34,155.55Z"/><path class="cls-19" d="M248.11,120.69s1.3,6.13,4.84,5.81,2.79-4.08,2.79-4.08a11.44,11.44,0,0,1,11-3.55c7.1,1.4,9.13,3.11,12.29,5.94,2.25,2-.58,5-2.4,6.57a6.94,6.94,0,0,0-2.36,4.18c-.2,1.4.07,2.75,1.84,2.82,3.72.16,4.61-.26,11.57-1.87s8.75,7.35,8.75,7.35.86,5.41-4.05,7.51S287.5,157,287.5,157s-1,3.57,2.4,3.64,10.42-1.2,10.4-12.63-4-13.76-6.2-14.55-7.25-2.16-10.32-.83.36-8,.36-8,1.9-7.61-5.72-8.84-13.29-2.16-18.16-1-4.8,2.67-4.8,2.67-.85,1-2.8-.28-3.37-.29-4.24.47c0,0-5.79-2-9.5,1.06a16,16,0,0,0-6,11.38c-.41,4.54,4.83,3.66,4.83,3.66s3.08-.25,2.05-5.67S243,119.94,248.11,120.69Z"/><path class="cls-3" d="M279.12,118.44s5.69-10.88,10.35-12a.9.9,0,0,1,.46,1.73c-2.31.77-5.95,3.21-10.81,10.26"/><path class="cls-20" d="M29.81,123.67l-3.47-11.3h-.09c.13,2.3.19,3.84.19,4.6v6.7H23.71v-14.4h4.16l3.41,11h.06l3.61-11h4.16v14.4H36.26v-6.81c0-.33,0-.7,0-1.12s0-1.53.13-3.35h-.09l-3.71,11.28Z"/><path class="cls-20" d="M49.61,123.67,49,122.18H49a4.44,4.44,0,0,1-1.56,1.32,5,5,0,0,1-2.09.37,3.37,3.37,0,0,1-2.5-.91,3.46,3.46,0,0,1-.91-2.58,2.89,2.89,0,0,1,1.23-2.58,7,7,0,0,1,3.7-.92l1.91-.06v-.49A1.5,1.5,0,0,0,47,114.66a7.68,7.68,0,0,0-3.1.8l-1-2a8.91,8.91,0,0,1,4.22-1,5.22,5.22,0,0,1,3.4,1,3.55,3.55,0,0,1,1.18,2.93v7.34Zm-.88-5.1-1.16,0a3.78,3.78,0,0,0-2,.47A1.5,1.5,0,0,0,45,120.4c0,.85.49,1.27,1.46,1.27a2.31,2.31,0,0,0,1.67-.6,2.09,2.09,0,0,0,.63-1.59Z"/><path class="cls-20" d="M57.81,117.68,59.12,116l3.09-3.35H65.6l-4.38,4.78,4.64,6.23H62.4l-3.18-4.46-1.29,1v3.42h-3V108.34h3v6.84l-.16,2.5Z"/><path class="cls-20" d="M72.55,123.87a5.68,5.68,0,0,1-4.16-1.47,5.55,5.55,0,0,1-1.5-4.16A6.09,6.09,0,0,1,68.28,114a5.62,5.62,0,0,1,7.46-.18,5,5,0,0,1,1.3,3.68v1.45h-7.1a2.86,2.86,0,0,0,.75,2,2.68,2.68,0,0,0,2,.72,8.24,8.24,0,0,0,1.89-.2,9.86,9.86,0,0,0,1.85-.66v2.32a6.91,6.91,0,0,1-1.69.59A10.38,10.38,0,0,1,72.55,123.87Zm-.43-9.28a1.88,1.88,0,0,0-1.49.61,2.77,2.77,0,0,0-.63,1.71h4.22a2.48,2.48,0,0,0-.58-1.71A2,2,0,0,0,72.12,114.59Z"/><path class="cls-20" d="M83.39,112.66h3.29l2.08,6.2a8,8,0,0,1,.36,1.91h.06a8.74,8.74,0,0,1,.43-1.91l2-6.2h3.22l-4.66,12.42a5.4,5.4,0,0,1-1.83,2.58,4.56,4.56,0,0,1-2.77.86,6.53,6.53,0,0,1-1.53-.17V126a5.4,5.4,0,0,0,1.18.13,2.19,2.19,0,0,0,1.4-.49,3.33,3.33,0,0,0,.93-1.47l.17-.55Z"/><path class="cls-20" d="M106.57,118.15a5.93,5.93,0,0,1-1.41,4.2,5.13,5.13,0,0,1-4,1.52,5.56,5.56,0,0,1-2.8-.69,4.62,4.62,0,0,1-1.86-2,6.63,6.63,0,0,1-.66-3A5.89,5.89,0,0,1,97.3,114a5.17,5.17,0,0,1,4-1.5,5.56,5.56,0,0,1,2.8.69,4.57,4.57,0,0,1,1.86,2A6.57,6.57,0,0,1,106.57,118.15Zm-7.61,0a4.6,4.6,0,0,0,.54,2.47,1.9,1.9,0,0,0,1.74.84,1.88,1.88,0,0,0,1.73-.84,4.58,4.58,0,0,0,.53-2.47,4.63,4.63,0,0,0-.53-2.46,2.27,2.27,0,0,0-3.48,0A4.59,4.59,0,0,0,99,118.15Z"/><path class="cls-20" d="M117,123.67l-.4-1.41h-.16a3.13,3.13,0,0,1-1.37,1.19,4.65,4.65,0,0,1-2,.42,3.88,3.88,0,0,1-2.93-1,4.21,4.21,0,0,1-1-3v-7.18h3v6.43a3.11,3.11,0,0,0,.43,1.79,1.53,1.53,0,0,0,1.35.6,2,2,0,0,0,1.82-.85,5.16,5.16,0,0,0,.56-2.79v-5.18h3v11Z"/><path class="cls-20" d="M128.71,112.45a4.71,4.71,0,0,1,1,.09l-.22,2.82a3.31,3.31,0,0,0-.89-.1,3.18,3.18,0,0,0-2.24.74,2.65,2.65,0,0,0-.8,2.07v5.6h-3v-11h2.28l.44,1.85h.15a4.12,4.12,0,0,1,1.38-1.49A3.41,3.41,0,0,1,128.71,112.45Z"/></g></g></svg>