<svg height='100px' width='100px'  fill="#000000" xmlns="http://www.w3.org/2000/svg" xmlns:xlink="http://www.w3.org/1999/xlink" version="1.1" x="0px" y="0px" viewBox="0 0 47.9 53" style="enable-background:new 0 0 47.9 53;" xml:space="preserve"><g><g><path d="M32.8,23.7c-1.3,4.3-4.5,6.8-8.7,6.8c-4.2,0-7.4-2.5-8.7-6.8L15.2,23H2.5l4.1,30h35l4.1-30H33.1L32.8,23.7z M43.5,25    l-3.6,26H8.4L4.8,25h9c1.7,4.7,5.5,7.5,10.4,7.5s8.7-2.8,10.4-7.5H43.5z M26.9,6h-6v20h6V6z M24.9,24h-2V8h2V24z M35.9,0h-6v20h6    V0z M33.9,18h-2V2h2V18z M17.9,0h-6v20h6V0z M15.9,18h-2V2h2V18z M47.9,4l-5.8-1.5L38,18l5.8,1.5L47.9,4z M40.4,16.5l3-11.6    l1.9,0.5l-3,11.6L40.4,16.5z M9.9,18L5.8,2.5L0,4l4.1,15.5L9.9,18z M4.4,4.9l3,11.6l-1.9,0.5l-3-11.6L4.4,4.9z"></path></g></g></svg>