<svg height='100px' width='100px'  fill="#000000" xmlns="http://www.w3.org/2000/svg" xmlns:xlink="http://www.w3.org/1999/xlink" version="1.1" x="0px" y="0px" viewBox="0 0 512 512" style="enable-background:new 0 0 512 512;" xml:space="preserve"><g><path d="M382,376.3V189.6c0-5.5-4.8-9.6-10.3-9.6H355v-57.6c0-62.9-51.1-114-114-114s-114,51.1-114,114V450h-15.5   C95,450,82,463,82,479.6v14c0,5.5,4,10.4,9.5,10.4h120c5.5,0,10.5-4.9,10.5-10.4v-14c0-16.5-13.9-29.6-30.5-29.6H177V122.4   c0-35.3,28.7-64,64-64s64,28.7,64,64v57.5c-57,4.4-102,51.9-102,109.7v152c0,5.5,4.7,10.5,10.2,10.5h98.4c7,25,30.5,44.4,58.4,44.4   c33.4,0,60.6-27.3,60.6-60.6C430.6,406.4,409,381.8,382,376.3z M202,479.6v4.4H102v-4.4c0-5.5,4-9.6,9.5-9.6h80   C197.1,470,202,474,202,479.6z M241,38.4c-46.3,0-84,37.7-84,84V450h-10V122.4c0-51.8,42.2-94,94-94s94,42.2,94,94V180h-10v-57.6   C325,76.1,287.3,38.4,241,38.4z M302,200.3v81.3c0,11-9.3,20.5-20.3,20.5H223v-12.4C223,243.8,257,206,302,200.3z M223,322h58.7   c22.1,0,40.3-18.4,40.3-40.5V200h40v175.7c-28,3.9-50.5,27.3-52.4,56.3H223V322z M370,476.2c-22.3,0-40.5-18.2-40.5-40.5   s18.2-40.5,40.5-40.5s40.5,18.2,40.5,40.5S392.3,476.2,370,476.2z"></path></g></svg>