<svg height='100px' width='100px'  fill="#000000" xmlns="http://www.w3.org/2000/svg" xmlns:xlink="http://www.w3.org/1999/xlink" version="1.1" x="0px" y="0px" viewBox="0 0 512 512" style="enable-background:new 0 0 512 512;" xml:space="preserve"><g><path d="M445,42c0-16.6-13.4-30-30-30H97c-16.6,0-30,13.4-30,30v429c0,16.6,13.4,30,30,30h318   c16.6,0,30-13.4,30-30V42z M96.9,32h318.3c5.5,0,9.9,4.1,9.9,9.6V120H87V41.6C87,36.1,91.3,32,96.9,32z M425,140v300H87V140H425z    M415.1,480H96.9c-5.5,0-9.9-4.1-9.9-9.6V460h338v10.4C425,475.9,420.7,480,415.1,480z"></path><path d="M405,170c0-5.5-4.5-10-10-10H117c-5.5,0-10,4.5-10,10v240c0,5.5,4.5,10,10,10h278c5.5,0,10-4.5,10-10V170   z M127,180h258v220H127V180z"></path><path d="M297.5,205h-83c-5.5,0-10,4.5-10,10s4.5,10,10,10h83c5.5,0,10-4.5,10-10S303,205,297.5,205z"></path><path d="M290,100c5.5,0,10-4.5,10-10V62c0-5.5-4.5-10-10-10s-10,4.5-10,10v28C280,95.5,284.5,100,290,100z"></path><path d="M330,100c5.5,0,10-4.5,10-10V62c0-5.5-4.5-10-10-10s-10,4.5-10,10v28C320,95.5,324.5,100,330,100z"></path><path d="M370,100c5.5,0,10-4.5,10-10V62c0-5.5-4.5-10-10-10s-10,4.5-10,10v28C360,95.5,364.5,100,370,100z"></path><path d="M159.7,104.6c15.4,0,28-12.6,28-28s-12.6-28-28-28s-28,12.6-28,28S144.3,104.6,159.7,104.6z M159.7,68.6   c4.4,0,8,3.6,8,8s-3.6,8-8,8s-8-3.6-8-8S155.3,68.6,159.7,68.6z"></path></g></svg>