<svg height='100px' width='100px'  fill="#000000" xmlns="http://www.w3.org/2000/svg" xmlns:xlink="http://www.w3.org/1999/xlink" version="1.1" x="0px" y="0px" viewBox="0 0 512 512" style="enable-background:new 0 0 512 512;" xml:space="preserve"><g><path d="M400,46c0-16.6-13.4-30-30-30H141c-16.6,0-30,13.4-30,30v420c0,16.6,13.4,30,30,30h229   c16.6,0,30-13.4,30-30V46z M141.3,36h229.4c5.5,0,10.3,4.5,10.3,10v33H131V46C131,40.5,135.8,36,141.3,36z M381,99v299H131V99H381z    M370.7,476H141.3c-5.5,0-10.3-4.5-10.3-10v-48h250v48C381,471.5,376.2,476,370.7,476z"></path><path d="M226.8,71h58.4c5.5,0,10-4.5,10-10s-4.5-10-10-10h-58.4c-5.5,0-10,4.5-10,10S221.3,71,226.8,71z"></path><path d="M305.2,433h-98.4c-5.5,0-10,4.5-10,10s4.5,10,10,10h98.4c5.5,0,10-4.5,10-10S310.7,433,305.2,433z"></path></g></svg>