<svg height='100px' width='100px'  fill="#000000" xmlns="http://www.w3.org/2000/svg" xmlns:xlink="http://www.w3.org/1999/xlink" version="1.1" x="0px" y="0px" viewBox="0 0 100 100" style="enable-background:new 0 0 100 100;" xml:space="preserve"><path d="M94.78,22.9l-7.07-7.07l-7.07-7.07c-0.78-0.78-2.05-0.78-2.83,0L42.45,44.11l-0.71-0.71c-2.34-2.34-6.15-2.34-8.48,0  l-4.24,4.24c0,0,0,0,0,0s0,0,0,0L6.39,70.27c-1.13,1.13-1.76,2.64-1.76,4.24s0.62,3.11,1.76,4.24l11.31,11.31  c1.13,1.13,2.64,1.76,4.24,1.76c1.6,0,3.11-0.62,4.24-1.76L53.06,63.2c1.13-1.13,1.76-2.64,1.76-4.24s-0.62-3.11-1.76-4.24  l-0.71-0.71l26.87-26.87l5.66,5.66c0.39,0.39,0.9,0.59,1.41,0.59s1.02-0.2,1.41-0.59l7.07-7.07c0.38-0.38,0.59-0.88,0.59-1.41  S95.16,23.27,94.78,22.9z M23.36,87.24c-0.75,0.75-2.07,0.76-2.83,0h0L9.22,75.93c-0.38-0.38-0.59-0.88-0.59-1.41  s0.21-1.04,0.59-1.41l21.21-21.21l14.14,14.14L23.36,87.24z M50.23,60.38L47.4,63.2L33.26,49.06l2.83-2.83  c0.39-0.39,0.9-0.58,1.41-0.58c0.51,0,1.02,0.19,1.41,0.58l5.66,5.66l3.54,3.54c0,0,0,0,0,0l2.12,2.12  c0.38,0.38,0.59,0.88,0.59,1.41S50.61,60,50.23,60.38z M47.4,49.06l-2.12-2.12L79.22,13l4.24,4.24l-5.66,5.66L49.53,51.18  L47.4,49.06z M86.29,28.55l-4.24-4.24l4.24-4.24l4.24,4.24L86.29,28.55z M34.68,67.45c-0.39,0.39-0.9,0.59-1.41,0.59  s-1.02-0.2-1.41-0.59l-2.83-2.83c-0.78-0.78-0.78-2.05,0-2.83c0.78-0.78,2.05-0.78,2.83,0l2.83,2.83  C35.46,65.4,35.46,66.66,34.68,67.45z M27.6,71.69c0.78,0.78,0.78,2.05,0,2.83c-0.39,0.39-0.9,0.59-1.41,0.59  c-0.51,0-1.02-0.2-1.41-0.59l-2.83-2.83c-0.78-0.78-0.78-2.05,0-2.83c0.78-0.78,2.05-0.78,2.83,0L27.6,71.69z"></path></svg>