<svg height='100px' width='100px'  fill="#000000" xmlns="http://www.w3.org/2000/svg" xmlns:xlink="http://www.w3.org/1999/xlink" version="1.1" x="0px" y="0px" viewBox="0 0 64 64" style="enable-background:new 0 0 64 64;" xml:space="preserve"><path d="M48,25h-3.067C44.585,20.749,42.543,4,32,4S19.415,20.749,19.067,25H16c-0.553,0-1,0.448-1,1  c0,13.089,5.801,20.92,8.264,23.655C18.064,52.396,18,58.929,18,59c0,0.552,0.447,1,1,1h26c0.553,0,1-0.448,1-1  c0-0.071-0.064-6.604-5.264-9.345C43.199,46.92,49,39.089,49,26C49,25.448,48.553,25,48,25z M32,6c8.595,0,10.546,14.887,10.92,19  H21.079C21.452,20.888,23.396,6,32,6z M46.987,27c-0.026,1.039-0.099,2.033-0.198,3H17.209c-0.098-0.967-0.171-1.961-0.197-3H46.987  z M38.021,50.202c0.072,0.349,0.324,0.634,0.662,0.747c4.006,1.335,4.993,5.202,5.237,7.051H20.08  c0.243-1.851,1.231-5.716,5.236-7.051c0.339-0.113,0.592-0.398,0.663-0.748c0.072-0.35-0.048-0.711-0.315-0.949  C25.59,49.186,19.238,43.399,17.461,32h29.075c-1.78,11.366-8.127,17.187-8.202,17.254C38.068,49.492,37.949,49.853,38.021,50.202z"></path><path d="M32,8v2c1.965,0,3.664,2.125,5.051,6.314l1.898-0.629C37.237,10.514,34.964,8,32,8z"></path></svg>