<svg height='100px' width='100px'  fill="#FFFFFF" xmlns="http://www.w3.org/2000/svg" xmlns:xlink="http://www.w3.org/1999/xlink" version="1.1" x="0px" y="0px" viewBox="0 0 512 512" style="enable-background:new 0 0 512 512;" xml:space="preserve"><g><path d="M417.8,85h-63l-1.9-43.3c-0.2-5.3-4.6-9.7-10-9.7H79.3c-3.6,0-7,2-8.8,5.2s-1.6,7.1,0.3,10.2L103,97.9   v87.5C71.6,218,54.3,260.8,54.3,306.3c0,2,0,4,0.1,6l0,0c0,0.1,0,0.2,0,0.3c3.4,92.8,80.1,167.2,173.8,167.2   c95.7,0,173.6-77.9,173.6-173.6c0-41.4-15-81.2-42.2-112.7l-4-88.6h62.1c11,0,20.2,8.6,20.2,19.7v148.2c0,5.5,4.5,10,10,10   s10-4.5,10-10V124.7C458,102.6,439.8,85,417.8,85z M97.5,52h235.8l1.5,33H118.3L97.5,52z M228.3,459.5   c-79.5,0-145-59.5-153.1-137.5H381C373,400,307.6,459.5,228.3,459.5z M339.9,198c0.1,2.3,1,4.3,2.6,6c24.9,27.7,38.5,62,39.4,98   H74.4c1-40,17.1-77.3,45.7-105.6c1.9-1.9,3-4.3,3-6.9V105h212.7L339.9,198z"></path></g></svg>
